<svg width="30" height="30" viewBox="0 0 30 30" fill="none" xmlns="http://www.w3.org/2000/svg">
<circle cx="15" cy="15" r="15" fill="black"/>
<g clip-path="url(#clip0)">
<path d="M23.7066 6.88736C23.4746 6.60353 23.1269 6.44727 22.7277 6.44727C22.5107 6.44727 22.2808 6.49293 22.0445 6.58324L5.96139 12.7227C5.10788 13.0484 4.99293 13.5372 5.00032 13.7996C5.00771 14.0619 5.15021 14.5435 6.02083 14.8205C6.02605 14.8221 6.03126 14.8237 6.03648 14.8251L9.37256 15.7798L11.1767 20.9389C11.4227 21.6423 11.9749 22.0792 12.6179 22.0792C13.0233 22.0792 13.4221 21.9093 13.7712 21.588L15.8347 19.6881L18.8276 22.098C18.8279 22.0983 18.8283 22.0984 18.8286 22.0987L18.857 22.1216C18.8597 22.1237 18.8624 22.1258 18.865 22.1279C19.1977 22.3859 19.5608 22.5221 19.9155 22.5223H19.9157C20.6087 22.5223 21.1606 22.0093 21.3213 21.2155L23.9565 8.20344C24.0624 7.68115 23.9736 7.21381 23.7066 6.88736ZM10.4886 15.5985L16.9249 12.3104L12.9172 16.5688C12.8516 16.6386 12.805 16.724 12.7821 16.8169L12.0094 19.9471L10.4886 15.5985ZM13.017 20.769C12.9903 20.7935 12.9635 20.8154 12.9367 20.8356L13.6536 17.9317L14.9578 18.982L13.017 20.769ZM22.8654 7.98238L20.2302 20.9946C20.2049 21.1191 20.1238 21.4089 19.9155 21.4089C19.8126 21.4089 19.6833 21.3528 19.551 21.2509L16.1595 18.5201C16.1591 18.5197 16.1585 18.5193 16.1579 18.519L14.14 16.894L19.9355 10.7357C20.1211 10.5386 20.1379 10.2366 19.9754 10.0201C19.8128 9.80349 19.5181 9.73536 19.277 9.85857L9.74481 14.7283L6.36336 13.7609L22.4416 7.62331C22.5774 7.57142 22.6722 7.56055 22.7277 7.56055C22.7618 7.56055 22.8224 7.56461 22.8449 7.59229C22.8744 7.62839 22.9121 7.75146 22.8654 7.98238Z" fill="white"/>
</g>
<defs>
<clipPath id="clip0">
<rect width="19" height="19" fill="white" transform="translate(5 5)"/>
</clipPath>
</defs>
</svg>
