<svg width="29" height="30" viewBox="0 0 29 30" fill="none" xmlns="http://www.w3.org/2000/svg">
<path d="M14.5 0C6.49311 0 0 6.71701 0 15C0 23.283 6.49311 30 14.5 30C22.5069 30 29 23.283 29 15C29 6.71701 22.5069 0 14.5 0ZM21.7744 11.4769V13.508C20.8486 13.5083 19.9491 13.3206 19.1007 12.9504C18.5552 12.7121 18.0469 12.4052 17.5821 12.0342L17.596 18.2858C17.5902 19.6935 17.0518 21.0161 16.0774 22.0124C15.2845 22.8233 14.2797 23.339 13.1906 23.5059C12.9347 23.5451 12.6742 23.5652 12.4109 23.5652C11.245 23.5652 10.1382 23.1745 9.23282 22.4537C9.06244 22.318 8.89949 22.1709 8.74435 22.0124C7.68834 20.9327 7.1438 19.4694 7.2355 17.9299C7.30545 16.7581 7.75897 15.6405 8.51501 14.7646C9.51529 13.6055 10.9146 12.9622 12.4109 12.9622C12.6742 12.9622 12.9347 12.9826 13.1906 13.0218V13.7728V15.8617C12.9479 15.7789 12.6888 15.7334 12.419 15.7334C11.052 15.7334 9.94609 16.8871 9.96654 18.3023C9.97951 19.2077 10.4576 19.9992 11.1628 20.4355C11.4942 20.6406 11.8754 20.7676 12.2823 20.7907C12.6011 20.8088 12.9072 20.7629 13.1906 20.6661C14.1672 20.3323 14.8718 19.3833 14.8718 18.2641L14.875 14.0777V6.43477H17.5788C17.5814 6.71191 17.6086 6.98232 17.6591 7.24436C17.8632 8.30496 18.4411 9.22512 19.2454 9.85242C19.9467 10.3996 20.82 10.724 21.7665 10.724C21.7672 10.724 21.775 10.724 21.7743 10.7234V11.4769H21.7744Z" fill="#212121"/>
</svg>
