<svg width="30" height="30" viewBox="0 0 30 30" fill="none" xmlns="http://www.w3.org/2000/svg">
<circle cx="15" cy="15" r="15" fill="black"/>
<path d="M24.1595 13.0589C24.1597 11.1805 23.4235 9.40988 22.0866 8.07306C20.7498 6.73624 18.9792 6 17.1007 6H12.9182C11.04 6 9.2691 6.73624 7.93243 8.07291C6.59561 9.40988 5.85938 11.1805 5.85938 13.0589V16.3465C5.85938 17.8013 6.3031 19.2005 7.14264 20.3933C7.8833 21.4456 8.87939 22.2675 10.0407 22.7886V24.6771C10.0407 25.6535 10.5875 26 11.0556 26C11.3901 26 11.7245 25.8349 12.0502 25.5094L14.1541 23.4055L17.1008 23.4054C18.9792 23.4054 20.7498 22.6692 22.0866 21.3325C23.4235 19.9957 24.1597 18.2249 24.1597 16.3465L24.1595 13.0589ZM17.1008 22.2335L13.9114 22.2337C13.756 22.2337 13.607 22.2953 13.4972 22.4052L11.2216 24.6807C11.2187 24.6838 11.2157 24.6867 11.2126 24.6896C11.2126 24.6855 11.2126 24.6812 11.2126 24.6771V22.3976C11.2126 22.1545 11.0626 21.9367 10.8356 21.8501C8.56018 20.9818 7.0314 18.7701 7.0314 16.3465V13.0589C7.0314 11.4935 7.64572 10.017 8.76114 8.90146C9.87656 7.78619 11.3528 7.17188 12.9182 7.17188H17.1007C18.6661 7.17188 20.1425 7.78619 21.2579 8.90161C22.3735 10.0172 22.9878 11.4936 22.9877 13.0589L22.9878 16.3465C22.9877 19.5927 20.3468 22.2335 17.1008 22.2335Z" fill="white"/>
<path d="M16.5673 15.5835C16.3386 15.3546 15.9676 15.3546 15.7387 15.5835L15.2654 16.0567L13.4313 14.2227L13.9046 13.7496C14.0145 13.6397 14.0763 13.4906 14.0763 13.3351C14.0763 13.1798 14.0145 13.0307 13.9046 12.9209L11.6857 10.7019C11.5758 10.5921 11.4269 10.5303 11.2714 10.5303C11.1161 10.5303 10.967 10.5921 10.8572 10.7019L9.30381 12.2553C8.46381 13.0953 8.46381 14.4623 9.30396 15.3028L14.1854 20.1845C14.5913 20.5902 15.1325 20.8136 15.7091 20.8136C16.2859 20.8136 16.8272 20.5902 17.233 20.1845L18.7864 18.6313C18.8962 18.5213 18.958 18.3724 18.958 18.2169C18.958 18.0616 18.8962 17.9125 18.7864 17.8026L16.5673 15.5835ZM16.4043 19.3557C16.2199 19.5401 15.973 19.6418 15.7091 19.6418C15.4453 19.6418 15.1984 19.5401 15.014 19.3557L10.1327 14.4741C9.74936 14.0908 9.74921 13.467 10.1325 13.0838L11.2714 11.9448L12.6617 13.3351L12.1883 13.8083C12.0785 13.9182 12.0167 14.0673 12.0167 14.2226C12.0167 14.3781 12.0785 14.527 12.1883 14.637L14.851 17.2997C15.0799 17.5284 15.4508 17.5286 15.6797 17.2997L16.153 16.8265L17.5432 18.2167L16.4043 19.3557Z" fill="white"/>
<path d="M15.1523 8.59192C14.8287 8.59192 14.5664 8.85422 14.5664 9.17786C14.5664 9.50134 14.8287 9.76379 15.1523 9.76379C16.4933 9.76379 17.7541 10.2859 18.7023 11.2343C19.6506 12.1825 20.1728 13.4431 20.1728 14.7842C20.1728 15.1077 20.4351 15.3702 20.7587 15.3702C21.0822 15.3702 21.3447 15.1079 21.3447 14.7842C21.3447 13.1302 20.7006 11.5752 19.531 10.4056C18.3614 9.23599 16.8064 8.59192 15.1523 8.59192Z" fill="white"/>
<path d="M17.6624 14.7842C17.6624 15.1077 17.9249 15.3701 18.2484 15.3701C18.572 15.3701 18.8343 15.1077 18.8343 14.7842C18.8343 12.754 17.1825 11.1024 15.1523 11.1024C14.8287 11.1024 14.5664 11.3647 14.5664 11.6884C14.5664 12.012 14.8287 12.2743 15.1523 12.2743C16.5365 12.2743 17.6624 13.4002 17.6624 14.7842Z" fill="white"/>
</svg>
