<svg width="70" height="79" viewBox="0 0 70 79" fill="none" xmlns="http://www.w3.org/2000/svg">
<path d="M69.5968 45.3915C68.6794 29.332 65.7034 17.6078 60.7516 10.5452C60.7479 10.5397 60.7431 10.5349 60.7394 10.5295C60.7144 10.4957 60.6887 10.4632 60.6607 10.4325C60.6564 10.427 60.6521 10.4216 60.6472 10.4168C60.6149 10.3824 60.5801 10.3499 60.5435 10.3197C60.5337 10.3113 60.5233 10.3041 60.513 10.2962C60.4843 10.2739 60.455 10.2528 60.4244 10.2336C60.4135 10.2263 60.4025 10.2191 60.3909 10.2119C60.3164 10.1679 60.2371 10.1305 60.1528 10.1034L57.3324 9.18904C57.236 7.48756 56.9204 5.97172 56.39 4.67527C55.43 2.32827 53.3468 0.634627 50.8175 0.144012C48.2559 -0.35263 45.6399 0.452003 43.8229 2.29693L35.0314 11.2196L26.2393 2.29693C24.4217 0.452003 21.807 -0.353232 19.2447 0.144012C16.7154 0.634627 14.6323 2.32827 13.6722 4.67527C13.1424 5.97052 12.8269 7.48395 12.7298 9.18302L9.8905 10.1034C9.80688 10.1305 9.72753 10.1679 9.65307 10.2119C9.64147 10.2185 9.63049 10.2257 9.6195 10.2336C9.58898 10.2528 9.55908 10.2739 9.53039 10.2962C9.52063 10.3041 9.51025 10.3113 9.49987 10.3197C9.46325 10.3505 9.42846 10.3824 9.39611 10.4168C9.39184 10.4216 9.38757 10.427 9.3833 10.4325C9.35522 10.4632 9.32898 10.4957 9.30456 10.5295C9.30029 10.5349 9.29541 10.5397 9.29174 10.5452C4.80445 16.9455 1.93031 27.2333 0.748671 41.1212C0.69435 41.7595 1.1747 42.32 1.82045 42.3737C2.46681 42.4267 3.03504 41.953 3.08936 41.3153C4.11964 29.1982 6.43591 19.9657 9.98083 13.8191L10.7145 15.7846L13.9048 24.3354V46.4541L8.61548 71.2627H3.07166C2.82997 68.1912 2.22572 58.9985 2.65296 48.3629C2.67921 47.7234 2.17445 47.184 1.52626 47.1587C0.878676 47.1309 0.332412 47.6312 0.306778 48.2713C-0.143661 59.4861 0.539321 69.1206 0.759657 71.8063C0.841444 72.8014 1.69777 73.5813 2.71034 73.5813H8.93286C9.85327 73.5813 10.6583 72.9364 10.8481 72.0474L13.9042 57.7111V71.649C13.9042 72.7152 14.7825 73.5819 15.8616 73.5819H17.8458V77.0675C17.8458 78.1331 18.7235 78.9998 19.8026 78.9998H50.2401C51.3199 78.9998 52.1975 78.1331 52.1975 77.0675V73.5819H54.1818C55.2609 73.5819 56.1386 72.7152 56.1386 71.649V57.7105L59.1952 72.0474C59.3844 72.9364 60.1901 73.5819 61.1099 73.5819H67.333C68.345 73.5819 69.2019 72.802 69.2831 71.8063C69.5358 68.7337 70.303 57.7473 69.5968 45.3915ZM45.5057 3.91403C46.5219 2.88217 47.8976 2.31923 49.3246 2.31923C49.6701 2.31923 50.0186 2.35238 50.3653 2.41989C52.1389 2.76344 53.5409 3.90198 54.2129 5.54379C54.5492 6.3665 54.7818 7.31277 54.9069 8.37055L49.8959 6.7209C49.4833 6.58529 49.0274 6.68594 48.713 6.98369C48.6636 7.0301 44.3045 11.081 37.8311 11.703L45.5057 3.91403ZM15.8493 5.54379C16.5213 3.90258 17.9233 2.76344 19.697 2.41989C21.4774 2.07453 23.2944 2.63265 24.5566 3.91403L32.2293 11.7018C25.7816 11.0738 21.3974 7.02889 21.3492 6.98369C21.1551 6.79986 20.9061 6.69077 20.6473 6.66726C20.6504 6.64918 20.6534 6.6311 20.6571 6.61362L20.4984 6.66485C20.3873 6.66847 20.275 6.68534 20.1664 6.72151L15.1554 8.37055C15.2811 7.31277 15.513 6.3665 15.8493 5.54379ZM49.8489 76.6811H20.1944V73.6205H49.8495V76.6811H49.8489ZM53.8632 23.7279C53.815 23.8563 53.7906 23.9919 53.7906 24.1287V71.2627H16.2528V24.1287C16.2528 23.9919 16.2284 23.8563 16.1808 23.7279L11.7795 11.932L20.3116 9.16614C21.4206 10.0726 24.028 11.9646 27.6804 13.1254V23.8255C27.6804 24.4662 28.2065 24.9852 28.8547 24.9852C29.5029 24.9852 30.029 24.4662 30.029 23.8255C30.029 23.8255 30.029 13.7384 30.029 13.7281C30.0485 14.452 40.0143 14.1585 40.0143 13.7305V23.8261C40.0143 24.4662 40.5405 24.9852 41.1886 24.9852C41.8375 24.9852 42.363 24.4662 42.363 23.8261V13.1314C46.0196 11.9724 48.6319 10.0799 49.7452 9.17036L58.2638 11.932L53.8632 23.7279ZM66.9717 71.2627H61.4279L56.1386 46.4541V24.3354L60.0607 13.824C63.9773 20.6582 66.4529 31.5379 67.2524 45.5217C67.925 57.2922 67.2445 67.803 66.9717 71.2627Z" fill="#8D8D8D"/>
</svg>
