<svg width="80" height="79" viewBox="0 0 80 79" fill="none" xmlns="http://www.w3.org/2000/svg">
<g clip-path="url(#clip0)">
<path d="M64.7218 64.8903C64.7218 64.2526 64.1987 63.7355 63.553 63.7355C62.9072 63.7355 62.3835 64.2526 62.3835 64.8903V71.871H17.6155V45.8816C17.6155 45.2439 17.0918 44.7268 16.446 44.7268C15.8003 44.7268 15.2772 45.2439 15.2772 45.8816V72.8094C15.2638 72.8794 15.2559 72.9517 15.2559 73.0252V76.7621C15.2559 76.8754 15.2681 76.9851 15.287 77.093C15.3834 78.0682 16.2178 78.833 17.231 78.833H62.7681C63.7806 78.833 64.6156 78.0682 64.712 77.093C64.731 76.9851 64.7426 76.8754 64.7426 76.7621V73.0252C64.7426 72.9517 64.7346 72.8794 64.7218 72.8094V64.8903ZM62.3835 76.3824H17.6155V74.1794H62.3835V76.3824Z" fill="#8D8D8D"/>
<path d="M79.8474 22.1567C76.4014 14.0458 71.7932 7.96919 66.1493 4.0961C62.5397 1.61891 58.2556 0.309799 53.7598 0.309799C53.7573 0.309799 53.7549 0.309799 53.7531 0.309799L50.5542 0.310402L39.9512 0.308594L29.4446 0.310402L26.2457 0.309799C26.2433 0.309799 26.2415 0.309799 26.239 0.309799C21.7432 0.309799 17.4585 1.61891 13.8489 4.0961C8.98133 7.43699 4.88465 12.4179 1.63941 18.9279C1.61011 18.9731 1.58326 19.0195 1.56068 19.0683L1.44349 19.3233C1.06751 20.0929 0.703131 20.8849 0.350348 21.6968L0.191046 22.0428C0.140998 22.1518 0.103156 22.264 0.0744692 22.3773C-0.13305 23.0987 0.0994938 23.8768 0.692756 24.3723L10.2655 32.371C10.3796 32.4668 10.5029 32.5446 10.6317 32.6097C10.9168 32.7586 11.2299 32.8333 11.543 32.8333C12.0514 32.8333 12.558 32.6404 12.9376 32.2595L14.4098 30.7804L15.2771 29.924V38.8014C15.2771 39.4391 15.8002 39.9557 16.4459 39.9557C17.0917 39.9557 17.6154 39.4391 17.6154 38.8014V27.137C17.6154 26.6699 17.3303 26.2492 16.8933 26.0707C16.4569 25.8917 15.954 25.9906 15.6195 26.3209L14.0857 27.8355L4.08204 19.2666C7.09046 13.4467 10.8142 8.99081 15.1831 5.99226C18.3997 3.78449 22.2223 2.61823 26.239 2.61823H26.2451H27.5256C27.5287 2.65017 27.5311 2.67187 27.5317 2.6791C27.6288 3.59162 27.8021 4.50173 28.0463 5.38593C28.393 6.63477 28.8727 7.77934 29.4714 8.78709C30.2387 10.0787 31.2024 11.1492 32.3358 11.9707C35.5707 14.3134 41.059 14.6208 44.8267 13.4015C46.3623 12.9043 47.7625 12.0508 48.877 10.9334C49.8029 10.004 50.5756 8.86544 51.1743 7.54789C51.6297 6.54556 51.9812 5.44801 52.218 4.28716C52.334 3.72301 52.4194 3.16489 52.4756 2.61823H53.7537H53.7598C57.7759 2.61823 61.5991 3.78509 64.8157 5.99226C69.1834 8.9896 72.9059 13.4437 75.9137 19.2606L65.9088 27.8313L64.3793 26.3209C64.0448 25.9906 63.5425 25.8917 63.1055 26.0701C62.6685 26.2492 62.384 26.6699 62.384 27.137V57.5787C62.384 58.2163 62.9071 58.7335 63.5529 58.7335C64.1986 58.7335 64.7217 58.2163 64.7217 57.5787V29.924C64.7217 29.924 65.0232 30.2217 65.0238 30.2217C65.7153 30.9046 66.4002 31.9123 67.2376 32.4162C69.2987 33.6554 70.4871 31.7466 71.9476 30.5212C74.397 28.4666 76.8537 26.4221 79.3067 24.3723C79.9603 23.8256 80.1776 22.9354 79.8474 22.1567ZM12.4286 29.4719L11.51 30.3784L2.4408 22.7395C2.45301 22.7106 2.46583 22.6828 2.47803 22.6539L3.04139 21.431L12.4286 29.4719ZM28.8794 2.65379C28.8971 2.65017 28.916 2.64776 28.9337 2.64294H28.9349C28.9166 2.64776 28.8971 2.65017 28.8794 2.65379ZM49.9262 3.82909C49.7229 4.82359 49.4251 5.7572 49.0411 6.60282C48.5565 7.66904 47.9407 8.58096 47.2107 9.31387C46.3574 10.1697 45.2808 10.8249 44.0991 11.207C42.4298 11.7465 40.5969 11.7344 38.7109 11.6717C38.2611 11.656 37.8211 11.6163 37.4011 11.5536C36.0126 11.3475 34.7388 10.8478 33.7183 10.1089C32.8436 9.47479 32.0929 8.63701 31.488 7.61901C30.9924 6.78545 30.5927 5.82893 30.3009 4.77718C30.1087 4.07983 29.9671 3.36259 29.8798 2.64294H50.1209C50.0739 3.03049 50.0086 3.42708 49.9262 3.82909ZM68.4839 30.3742L67.5659 29.4677L76.9476 21.431L77.5501 22.7383L68.4839 30.3742Z" fill="#8D8D8D"/>
</g>
<defs>
<clipPath id="clip0">
<rect width="80" height="79" fill="white"/>
</clipPath>
</defs>
</svg>
