<svg width="80" height="79" viewBox="0 0 80 79" fill="none" xmlns="http://www.w3.org/2000/svg">
<g clip-path="url(#clip0)">
<path d="M10.1888 27.7752C10.826 27.9097 11.4522 27.5064 11.5871 26.8772C13.2344 19.1961 14.9269 13.1128 15.7894 10.1703C15.9755 9.53446 16.4351 9.01733 17.0503 8.75092L30.6728 2.85088C30.9139 3.77786 31.4107 4.93328 32.4318 5.95369C34.1188 7.6395 36.6744 8.44173 40.0295 8.33806C40.2217 8.34409 40.4109 8.3471 40.5977 8.3471C43.6739 8.3471 46.0372 7.54307 47.6271 5.95369C48.6483 4.93328 49.1451 3.77786 49.3862 2.85088L63.0086 8.75092C63.6238 9.01733 64.0834 9.53446 64.2696 10.1703C65.6276 14.8047 70.1876 31.2126 71.8788 47.8821L72.3244 57.1121C72.3543 57.736 72.8755 58.2218 73.5018 58.2218C73.5207 58.2218 73.5396 58.2212 73.5585 58.2206C74.2092 58.1898 74.7115 57.6443 74.681 57.0018L74.2342 47.741C74.233 47.7211 74.2318 47.7012 74.2299 47.6807C72.5209 30.8045 67.9091 14.208 66.5364 9.52301C66.155 8.22173 65.2144 7.16275 63.9565 6.61729L48.9046 0.0982438C48.8979 0.0952302 48.8906 0.093422 48.8838 0.0904084C48.8729 0.0861893 48.8619 0.0819702 48.8515 0.0783538C48.8259 0.0687103 48.8002 0.0590667 48.774 0.0512313C48.7667 0.0488205 48.7593 0.0476151 48.752 0.0458069C48.6476 0.0162735 48.5402 0 48.431 0H31.628C31.5193 0 31.4119 0.0162735 31.3076 0.0452042C31.3002 0.0476151 31.2923 0.0488205 31.285 0.0512313C31.2587 0.0590667 31.2337 0.0681076 31.2081 0.0777511C31.1971 0.0819702 31.1861 0.0855866 31.1751 0.0904084C31.1684 0.0928191 31.1611 0.0952302 31.1544 0.0982438L16.1025 6.61729C14.8445 7.16215 13.9046 8.22113 13.5231 9.52241C12.6515 12.4956 10.9419 18.641 9.27874 26.3944C9.14385 27.0237 9.55096 27.642 10.1888 27.7752ZM47.0925 2.33073C46.9277 2.93104 46.595 3.68082 45.9249 4.34081C44.7109 5.5348 42.7407 6.09774 40.0691 6.00854C40.0557 6.00793 40.0429 6.00793 40.0295 6.00793C40.0167 6.00793 40.0032 6.00793 39.9904 6.00854C37.3195 6.09774 35.3487 5.5348 34.1347 4.34081C33.4633 3.68022 33.1313 2.93044 32.9665 2.33073H47.0925Z" fill="#8D8D8D"/>
<path d="M75.0361 64.3737C75.005 63.7312 74.4538 63.2346 73.802 63.2659C73.1514 63.296 72.6484 63.8421 72.6796 64.4846L73.2673 76.6704H64.5832C64.0754 70.5444 61.5693 41.0827 59.7175 33.5053C59.5765 32.9285 59.0205 32.5469 58.4236 32.6229C57.8279 32.6964 57.3835 33.2003 57.3909 33.7934L57.9548 76.6704H22.104L22.6679 33.7934C22.6759 33.2003 22.2315 32.6964 21.6352 32.6229C21.0395 32.5476 20.4829 32.9285 20.3419 33.5053C18.4895 41.0827 15.9834 70.5444 15.4756 76.6704H6.7921L8.18003 47.882C8.61949 43.5527 9.28721 38.9008 10.1649 34.055C10.2796 33.4215 9.8524 32.8164 9.21153 32.7031C8.57127 32.5897 7.95726 33.011 7.84251 33.6445C6.95201 38.5603 6.27452 43.2826 5.82957 47.6807C5.82713 47.7006 5.82591 47.7205 5.82469 47.741L4.37632 77.7794C4.36106 78.0977 4.47825 78.4081 4.70103 78.6389C4.92381 78.8692 5.23204 79 5.55491 79H16.5638C17.1784 79 17.6905 78.5335 17.7394 77.9277C17.7565 77.7144 18.7977 64.9294 20.0569 52.9648L19.7297 77.8198C19.7254 78.1314 19.8481 78.4316 20.0697 78.6534C20.2912 78.8752 20.594 79 20.9095 79H59.1499C59.4654 79 59.7682 78.8752 59.9897 78.6534C60.2113 78.4316 60.334 78.1314 60.3297 77.8198L60.0025 52.9654C61.2611 64.9294 62.303 77.7144 62.3201 77.9277C62.3689 78.5335 62.8804 79 63.4956 79H74.5045C74.8268 79 75.1356 78.8698 75.3584 78.6389C75.5806 78.4081 75.6977 78.0977 75.6831 77.7794L75.0361 64.3737Z" fill="#8D8D8D"/>
</g>
<defs>
<clipPath id="clip0">
<rect width="80" height="79" fill="white"/>
</clipPath>
</defs>
</svg>
