<svg width="32" height="32" viewBox="0 0 32 32" fill="none" xmlns="http://www.w3.org/2000/svg">
<path d="M28.658 6.24243C29.4147 7.21977 30.0452 8.29169 30.5812 9.42667L16.0157 20.1774L9.89941 16.3311V11.7281L15.9841 15.5429L28.658 6.24243Z" fill="#21A038"/>
<path d="M3.68867 16.0157C3.68867 15.7951 3.68867 15.6059 3.7202 15.3852L0.0315271 15.196C0.0315271 15.4483 0 15.732 0 15.9842C0 20.398 1.79704 24.402 4.69754 27.3024L7.31429 24.6857C5.07586 22.4788 3.68867 19.4207 3.68867 16.0157Z" fill="url(#paint0_linear)"/>
<path d="M15.9842 3.72016C16.2049 3.72016 16.3941 3.72016 16.6148 3.75169L16.8039 0.0630212C16.5517 0.0630212 16.268 0.0314941 16.0157 0.0314941C11.6019 0.0314941 7.598 1.82854 4.69751 4.72903L7.31426 7.34578C9.52115 5.10736 12.6108 3.72016 15.9842 3.72016Z" fill="url(#paint1_linear)"/>
<path d="M15.9843 28.3112C15.7636 28.3112 15.5744 28.3112 15.3537 28.2796L15.1646 31.9683C15.4168 31.9683 15.7005 31.9998 15.9527 31.9998C20.3665 31.9998 24.3705 30.2028 27.271 27.3023L24.6542 24.6855C22.4473 26.9555 19.3892 28.3112 15.9843 28.3112Z" fill="url(#paint2_linear)"/>
<path d="M22.9202 5.86404L26.0414 3.56256C23.2985 1.35567 19.799 0 15.9843 0V3.68867C18.5695 3.7202 20.9655 4.50837 22.9202 5.86404Z" fill="url(#paint3_linear)"/>
<path d="M32.0001 16.0157C32.0001 15.0384 31.9055 14.0925 31.7478 13.1467L28.3114 15.7004C28.3114 15.795 28.3114 15.9211 28.3114 16.0157C28.3114 19.6413 26.735 22.8886 24.2444 25.127L26.735 27.8699C29.9508 24.9694 32.0001 20.7132 32.0001 16.0157Z" fill="#21A038"/>
<path d="M15.9843 28.3114C12.3587 28.3114 9.11141 26.735 6.87298 24.2444L4.13013 26.735C7.06215 29.9823 11.2868 32.0001 15.9843 32.0001V28.3114Z" fill="url(#paint4_linear)"/>
<path d="M7.75567 6.90448L5.26502 4.16162C2.01773 7.09364 0 11.3183 0 16.0158H3.68867C3.68867 12.4217 5.26502 9.1429 7.75567 6.90448Z" fill="url(#paint5_linear)"/>
<defs>
<linearGradient id="paint0_linear" x1="4.31598" y1="26.8537" x2="0.540513" y2="15.9753" gradientUnits="userSpaceOnUse">
<stop offset="0.1444" stop-color="#F2E913"/>
<stop offset="0.3037" stop-color="#E7E518"/>
<stop offset="0.5823" stop-color="#CADB26"/>
<stop offset="0.891" stop-color="#A3CD39"/>
</linearGradient>
<linearGradient id="paint1_linear" x1="5.74897" y1="4.30137" x2="15.319" y2="0.666072" gradientUnits="userSpaceOnUse">
<stop offset="0.0592" stop-color="#0FA8E0"/>
<stop offset="0.5385" stop-color="#0099F9"/>
<stop offset="0.9234" stop-color="#0291EB"/>
</linearGradient>
<linearGradient id="paint2_linear" x1="14.948" y1="28.8533" x2="26.3512" y2="26.2843" gradientUnits="userSpaceOnUse">
<stop offset="0.1226" stop-color="#A3CD39"/>
<stop offset="0.2846" stop-color="#86C339"/>
<stop offset="0.8693" stop-color="#21A038"/>
</linearGradient>
<linearGradient id="paint3_linear" x1="15.2264" y1="2.36008" x2="24.7107" y2="5.27704" gradientUnits="userSpaceOnUse">
<stop offset="0.0566" stop-color="#0291EB"/>
<stop offset="0.79" stop-color="#0C8ACB"/>
</linearGradient>
<linearGradient id="paint4_linear" x1="5.06803" y1="27.3342" x2="15.2535" y2="31.1276" gradientUnits="userSpaceOnUse">
<stop offset="0.1324" stop-color="#F2E913"/>
<stop offset="0.2977" stop-color="#EBE716"/>
<stop offset="0.5306" stop-color="#D9E01F"/>
<stop offset="0.8023" stop-color="#BBD62D"/>
<stop offset="0.9829" stop-color="#A3CD39"/>
</linearGradient>
<linearGradient id="paint5_linear" x1="2.80673" y1="16.4613" x2="6.88907" y2="5.87571" gradientUnits="userSpaceOnUse">
<stop offset="0.0698" stop-color="#A3CD39"/>
<stop offset="0.2599" stop-color="#81C55F"/>
<stop offset="0.9216" stop-color="#0FA8E0"/>
</linearGradient>
</defs>
</svg>
