<svg width="46" height="32" viewBox="0 0 46 32" fill="none" xmlns="http://www.w3.org/2000/svg">
<g clip-path="url(#clip0)">
<path d="M29.0639 0C20.1526 0 13.064 7.18987 13.064 16C13.064 24.9114 20.2539 32 29.0639 32C37.874 32 45.0639 24.8101 45.0639 16C45.0639 7.18987 37.874 0 29.0639 0ZM29.0639 21.9747C25.8235 21.9747 23.0893 19.2405 23.0893 16C23.0893 12.7595 25.8235 10.0253 29.0639 10.0253C32.3044 10.0253 35.0386 12.7595 35.0386 16C34.9375 19.2405 32.3044 21.9747 29.0639 21.9747Z" fill="#8B3FFD"/>
<path d="M12.962 4.6582V27.9493H7.29115L0 4.6582H12.962Z" fill="#8B3FFD"/>
</g>
<defs>
<clipPath id="clip0">
<rect width="45.0667" height="32" fill="white"/>
</clipPath>
</defs>
</svg>
