<svg width="52" height="32" viewBox="0 0 52 32" fill="none" xmlns="http://www.w3.org/2000/svg">
<g clip-path="url(#clip0)">
<path d="M33.0301 3.42212H18.97V28.5777H33.0301V3.42212Z" fill="#FF5F00"/>
<path d="M19.8627 16C19.8627 10.8889 22.273 6.35556 25.9777 3.42223C23.2549 1.28889 19.818 0 16.0687 0C7.18627 0 0 7.15555 0 16C0 24.8444 7.18627 32 16.0687 32C19.818 32 23.2549 30.7111 25.9777 28.5778C22.273 25.6889 19.8627 21.1111 19.8627 16Z" fill="#EB001B"/>
<path d="M52 16C52 24.8444 44.8137 32 35.9313 32C32.1819 32 28.745 30.7111 26.0223 28.5778C29.7716 25.6444 32.1373 21.1111 32.1373 16C32.1373 10.8889 29.727 6.35556 26.0223 3.42223C28.745 1.28889 32.1819 0 35.9313 0C44.8137 0 52 7.2 52 16Z" fill="#F79E1B"/>
</g>
<defs>
<clipPath id="clip0">
<rect width="52" height="32" fill="white"/>
</clipPath>
</defs>
</svg>
