<svg width="70" height="22" viewBox="0 0 70 22" fill="none" xmlns="http://www.w3.org/2000/svg">
<path d="M28.6125 0L25.0994 21.862H30.7147L34.2257 0H28.6125ZM45.5504 8.90536C43.5881 7.93632 42.3851 7.2823 42.3851 6.29119C42.4091 5.39005 43.4024 4.46683 45.6205 4.46683C47.4448 4.42101 48.7857 4.84975 49.803 5.27632L50.3126 5.50377L51.076 0.929691C49.9669 0.500953 48.2082 0.0285495 46.036 0.0285495C40.4907 0.0285495 36.586 2.91167 36.5618 7.03518C36.516 10.0781 39.3573 11.7666 41.4838 12.7796C43.656 13.8187 44.3954 14.4924 44.3954 15.4156C44.3714 16.833 42.639 17.4871 41.0224 17.4871C38.7825 17.4871 37.5793 17.1502 35.7528 16.3604L35.0134 16.0236L34.2281 20.7771C35.5472 21.3635 37.973 21.8795 40.491 21.9059C46.3841 21.9059 50.2188 19.0665 50.267 14.6718C50.2862 12.2611 48.7879 10.4147 45.5504 8.90536ZM65.4719 0.0676569H61.1275C59.7887 0.0676569 58.7715 0.452729 58.1918 1.82651L49.8507 21.862H55.7439L57.367 17.5243H63.9602L64.8023 21.8795H70L65.4719 0.0676569ZM59.0013 13.1467C59.115 13.1577 61.2633 6.06566 61.2633 6.06566L62.9739 13.1467C62.9739 13.1467 60.1104 13.1467 59.0013 13.1467ZM20.4073 0L14.9056 14.8532L14.3063 11.924C13.2891 8.54428 10.0998 4.87158 6.54059 3.04723L11.5784 21.8402H17.5198L26.3486 0.00239788H20.4073V0Z" fill="#2394BC"/>
<path d="M12.4557 2.82084C12.027 1.15387 10.6597 0.0296073 8.80267 0.00561523H0.0897302L0 0.41012C6.7967 2.08572 12.5015 7.24161 14.3523 12.0914L12.4557 2.82084Z" fill="#EFC75E"/>
</svg>
