<svg width="148" height="148" viewBox="0 0 148 148" fill="none" xmlns="http://www.w3.org/2000/svg">
<path d="M115.667 37.9379L141.014 39.7845L142.86 14.4378L134.174 13.805L133.447 23.7774C119.533 8.72273 99.9389 0 79.1385 0C38.3345 0 5.13867 33.1965 5.13867 73.9999C5.13867 114.803 38.3351 148 79.1388 148C103.812 148 126.789 135.726 140.602 115.168L133.372 110.311C121.181 128.457 100.907 139.29 79.1388 139.29C43.1373 139.29 13.8481 110.001 13.8481 73.9999C13.8481 37.9986 43.1373 8.70944 79.1385 8.70944C97.653 8.70944 115.084 16.5505 127.383 30.059L116.299 29.2516L115.667 37.9379Z" fill="#FFA900"/>
<path d="M31.3457 89.2522C31.3457 80.1652 33.065 75.9409 40.1381 72.7482C44.313 70.8817 48.3902 69.1132 48.3902 64.9877C48.3902 62.335 46.72 60.9599 44.1662 60.9599C41.0226 60.9599 38.0754 63.023 36.3072 64.8403L31.4443 59.6334C33.6053 57.1776 38.5665 53.9849 45.2467 53.9849C53.0071 53.9849 57.3298 58.1598 57.3298 64.8891C57.3298 70.5869 54.1371 73.2396 49.5693 75.548C45.5907 77.5622 42.7908 79.3793 42.7908 82.1791H57.3792V89.2522H31.3457Z" fill="#666666"/>
<path d="M74.6673 89.2031V81.8843H60.9141V74.8604L77.1235 54.3286H82.5264V74.8604H86.849V81.8843H82.5264V89.2031H74.6673ZM68.7239 74.8601H75.5516V66.1169L68.7239 74.8601Z" fill="#666666"/>
<path d="M116.223 89.252H108.364V74.7619C108.364 71.4218 106.891 69.899 104.631 69.899C102.765 69.899 100.161 71.7166 99.1787 74.4671V89.2517H91.3203V53.395H99.1793V67.7868C101.046 64.7413 104.337 62.9731 108.119 62.9731C115.045 62.9731 116.224 68.2777 116.224 72.7477L116.223 89.252Z" fill="#666666"/>
<path d="M140.602 115.168L133.372 110.311C121.181 128.457 100.906 139.29 79.1387 139.29V148C103.812 148 126.789 135.726 140.602 115.168Z" fill="#FF8800"/>
<path d="M115.667 37.9379L141.014 39.7845L142.86 14.4378L134.174 13.805L133.448 23.7774C119.533 8.72273 99.939 0 79.1387 0V8.70944C97.6531 8.70944 115.084 16.5505 127.383 30.059L116.299 29.2516L115.667 37.9379Z" fill="#FF8800"/>
</svg>
