<svg width="148" height="148" viewBox="0 0 148 148" fill="none" xmlns="http://www.w3.org/2000/svg">
<path d="M148 6.1313L139.328 8.67188L141.869 0H119.155L108.688 4.31744L108.642 4.33594L106.892 0H69.6641V37.2281L74 40.3011L69.6641 49.4907V71.9156L78.3359 69.375L75.7954 78.0469H98.2203L108.55 73.7109L108.688 74.0185L110.483 78.0469H148V40.8188L143.664 40.3468L148 28.5562V6.1313Z" fill="#FF641A"/>
<path d="M148 78.0469V40.8188L143.664 40.3468L148 28.5562V6.1313L139.328 8.67188L141.869 0H119.155L108.688 4.31744V74.0185L110.483 78.0469H148Z" fill="#F03800"/>
<path d="M98.2207 78.0468H108.688H110.483L148 40.8188V28.5562L108.688 67.5796L98.2207 78.0468Z" fill="#F03800"/>
<path d="M119.155 0H108.688H106.892L69.6641 37.2281V49.4907L108.688 10.4672L119.155 0Z" fill="#F03800"/>
<path d="M141.869 0L108.688 32.8921L69.6641 71.9156V78.0469H75.7954L108.688 45.1547L148 6.1313V0L141.869 0Z" fill="#F03800"/>
<path d="M148 0H141.869L108.688 32.8921V45.1547L148 6.1313V0Z" fill="#CD0000"/>
<path d="M148 40.8188V28.5562L108.688 67.5796V78.0468H110.483L148 40.8188Z" fill="#CD0000"/>
<path d="M34.9766 34.6875H113.023V112.734H34.9766V34.6875Z" fill="#D599ED"/>
<path d="M74 34.6875H113.023V112.734H74V34.6875Z" fill="#AD77E3"/>
<path d="M56.6562 91.5669L39.3125 100.239L21.9688 91.5669L6.549 99.1322L0 106.743V123.061L8.58573 123.104L21.9688 116.558L39.3125 125.23L56.6562 116.558L71.0651 123.762L78.3359 123.061V106.742L72.0061 99.2412L56.6562 91.5669Z" fill="#FED843"/>
<path d="M56.6562 117.583L39.3125 126.254L21.9688 117.583L6.22034 125.311L0 132.757V148H39.3125H78.3359V132.757L72.444 125.475L56.6562 117.583Z" fill="#FED843"/>
<path d="M39.3125 69.375H0V97.0464L7.16181 97.8011L21.9688 90.5425L39.3125 99.2143L56.6562 90.5425L72.3798 98.4032L78.3359 97.0452V69.375H39.3125Z" fill="#FED843"/>
<path d="M71.0651 123.762L78.3359 123.061V106.742L72.0061 99.2412L56.6562 91.5669L39.3125 100.239V125.23L56.6562 116.558L71.0651 123.762Z" fill="#FABE2C"/>
<path d="M78.3359 132.757L72.444 125.475L56.6562 117.583L39.3125 126.254V148H78.3359V132.757Z" fill="#FABE2C"/>
<path d="M72.3798 98.4032L78.3359 97.0452V69.375H39.3125V99.2143L56.6562 90.5425L72.3798 98.4032Z" fill="#FABE2C"/>
<path d="M52.3203 52.0312H60.9922V60.7031H52.3203V52.0312Z" fill="#AD77E3"/>
<path d="M69.6641 52.0312H78.3359V60.7031H69.6641V52.0312Z" fill="#AD77E3"/>
<path d="M87.0078 52.0312H95.6797V60.7031H87.0078V52.0312Z" fill="#935ED0"/>
<path d="M87.0078 69.375H95.6797V78.0469H87.0078V69.375Z" fill="#935ED0"/>
<path d="M87.0078 86.7188H95.6797V95.3906H87.0078V86.7188Z" fill="#935ED0"/>
<path d="M56.6562 86.2065L39.3125 94.8784L21.9688 86.2065L0 97.0464V106.743L21.9688 95.9029L39.3125 104.575L56.6562 95.9029L78.3359 106.742V97.0452L56.6562 86.2065Z" fill="#FABE2C"/>
<path d="M39.3125 120.894L21.9688 112.222L0 123.061V132.757L21.9688 121.918L39.3125 130.59L56.6562 121.918L78.3359 132.757V123.061L56.6562 112.222L39.3125 120.894Z" fill="#FABE2C"/>
<path d="M78.3359 106.742V97.0452L56.6562 86.2065L39.3125 94.8784V104.575L56.6562 95.9029L78.3359 106.742Z" fill="#FF9100"/>
<path d="M78.3359 132.757V123.061L56.6562 112.222L39.3125 120.894V130.59L56.6562 121.918L78.3359 132.757Z" fill="#FF9100"/>
<path d="M74 52.0312H78.3359V60.7031H74V52.0312Z" fill="#935ED0"/>
<path d="M108.688 0V10.4672L119.155 0H108.688Z" fill="#CD0000"/>
</svg>
