<svg width="148" height="148" viewBox="0 0 148 148" fill="none" xmlns="http://www.w3.org/2000/svg">
<g clip-path="url(#clip0)">
<path d="M28.4975 85.9995L0.867188 126.297L27.5445 121.322L32.5195 148L58.7508 109.743L28.4975 85.9995Z" fill="#F57F41"/>
<path d="M119.492 85.9995L89.2383 109.743L115.471 148L120.445 121.322L147.122 126.297L119.492 85.9995Z" fill="#EA623C"/>
<path d="M73.9937 0C41.1297 0 14.3926 26.7383 14.3926 59.6056C14.3926 92.4718 41.1297 119.21 73.9937 119.21C106.859 119.21 133.597 92.4718 133.597 59.6045C133.597 26.7383 106.859 0 73.9937 0V0Z" fill="#FFE07F"/>
<path d="M73.9941 0V119.21C106.859 119.21 133.597 92.4718 133.597 59.6045C133.597 26.7383 106.859 0 73.9941 0V0Z" fill="#FFD23A"/>
<path d="M63.371 85.0319L43.0215 64.6812L49.1889 58.5138L63.371 72.6959L98.8026 37.2632L104.97 43.4306L63.371 85.0319Z" fill="#1D608B"/>
<path d="M73.9941 74.4337L104.969 43.4306L98.8016 37.2632L73.9941 62.0706V74.4337Z" fill="#0D3954"/>
</g>
<defs>
<clipPath id="clip0">
<rect width="148" height="148" fill="white"/>
</clipPath>
</defs>
</svg>
