<svg width="148" height="148" viewBox="0 0 148 148" fill="none" xmlns="http://www.w3.org/2000/svg">
<g clip-path="url(#clip0)">
<path d="M72.4439 56.3502H28.1133V1.71279C28.1133 0.798774 28.8544 0.0576172 29.7685 0.0576172H70.7884C71.7025 0.0576172 72.4436 0.798774 72.4436 1.71279V56.3502H72.4439Z" fill="#EAB14D"/>
<path d="M67.3184 0.0571289V56.3497H72.4443V1.71259C72.4443 0.798574 71.7031 0.057418 70.7891 0.057418H67.3184V0.0571289Z" fill="#E49542"/>
<path d="M53.0812 12.8109H47.4754C46.7392 12.8109 46.1426 12.2142 46.1426 11.478V0.0571289H54.4141V11.478C54.4141 12.2142 53.8172 12.8109 53.0812 12.8109Z" fill="#DF6B57"/>
<path d="M123.339 105.124H55.4043V38.0882C55.4043 36.6614 56.5608 35.5049 57.9876 35.5049H121.684C122.598 35.5049 123.339 36.246 123.339 37.1601V105.124Z" fill="#F1CB86"/>
<path d="M118.215 35.5049V105.124H123.341V37.1601C123.341 36.246 122.6 35.5049 121.686 35.5049H118.215Z" fill="#ECBE6B"/>
<path d="M92.175 48.2586H86.5692C85.833 48.2586 85.2363 47.662 85.2363 46.9257V35.5049H93.5079V46.9257C93.5079 47.662 92.9112 48.2586 92.175 48.2586Z" fill="#365E7D"/>
<path d="M80.0648 147.943H2.11652C0.947547 147.943 0 146.995 0 145.826V94.8681C0 93.9538 0.741156 93.2129 1.65517 93.2129H78.305C79.2768 93.2129 80.0648 94.0009 80.0648 94.9727V147.943Z" fill="#EAB14D"/>
<path d="M74.9395 93.2129V147.943H80.0654V94.9727C80.0654 94.0009 79.2774 93.2129 78.3056 93.2129H74.9395Z" fill="#E49542"/>
<path d="M42.8351 105.967H37.2294C36.4931 105.967 35.8965 105.37 35.8965 104.634V93.2129H44.168V104.634C44.168 105.37 43.5714 105.967 42.8351 105.967Z" fill="#365E7D"/>
<path d="M145.883 147.943H80.0645V105.124H146.344C147.258 105.124 148 105.865 148 106.779V145.826C148 146.995 147.052 147.943 145.883 147.943Z" fill="#EAB14D"/>
<path d="M142.873 105.124V147.943H145.882C147.051 147.943 147.999 146.995 147.999 145.826V106.779C147.999 105.865 147.258 105.124 146.344 105.124H142.873V105.124Z" fill="#E49542"/>
<path d="M116.835 117.878H111.229C110.493 117.878 109.896 117.281 109.896 116.545V105.124H118.168V116.545C118.168 117.281 117.571 117.878 116.835 117.878Z" fill="#DF6B57"/>
<path d="M55.4046 93.2128H11.0742V58.0053C11.0742 57.0913 11.8154 56.3501 12.7294 56.3501H55.4046V93.2128Z" fill="#F1CB86"/>
<path d="M50.2793 56.3501H55.4052V93.2128H50.2793V56.3501Z" fill="#ECBE6B"/>
<path d="M36.0422 69.1038H30.4364C29.7001 69.1038 29.1035 68.5072 29.1035 67.771V56.3501H37.375V67.771C37.375 68.5072 36.7784 69.1038 36.0422 69.1038Z" fill="#DF6B57"/>
</g>
<defs>
<clipPath id="clip0">
<rect width="148" height="148" fill="white"/>
</clipPath>
</defs>
</svg>
