<svg width="148" height="148" viewBox="0 0 148 148" fill="none" xmlns="http://www.w3.org/2000/svg">
<g clip-path="url(#clip0)">
<path d="M96.8105 64.8543C96.7779 64.7829 96.7449 64.7115 96.712 64.6401C94.348 59.5463 93.1967 53.974 93.1944 48.3584L93.1898 36.5753C93.1898 19.7912 82.2404 5.56675 67.0958 0.648926C50.0729 3.88036 37.2009 18.8344 37.2009 36.7973L37.1963 48.2775C37.194 53.7488 36.0722 59.178 33.7689 64.1409C33.7368 64.2103 33.7047 64.28 33.6729 64.3493C28.5895 75.4768 35.6244 88.5153 47.7442 90.1811C48.9204 90.3427 50.1218 90.4262 51.3425 90.4262H86.1918C96.2165 86.8005 101.467 75.0467 96.8105 64.8543Z" fill="#E7A561"/>
<path d="M45.6322 37.5762H52.8032V54.4499H45.6322C40.9716 54.4499 37.1942 50.6713 37.1953 46.0107C37.1965 41.3522 40.9734 37.5762 45.6322 37.5762Z" fill="#FFCBBE"/>
<path d="M114.325 64.3499C114.293 64.2803 114.261 64.2109 114.229 64.1412C111.926 59.1783 110.804 53.7491 110.802 48.2778L110.798 36.7977C110.797 16.4748 94.3221 0 73.9993 0C70.582 0 67.2743 0.467703 64.1348 1.33923C79.667 5.65117 91.0679 19.8921 91.0679 36.7977L91.0725 48.2778C91.0748 53.7491 92.1964 59.1783 94.4996 64.1412C94.5317 64.2106 94.5638 64.2803 94.5956 64.3499C99.6791 75.4774 92.6441 88.5159 80.5243 90.1814C79.3481 90.343 78.1468 90.4266 76.9261 90.4266H96.6555C97.8762 90.4266 99.0775 90.343 100.254 90.1814C112.374 88.5159 119.408 75.4777 114.325 64.3499Z" fill="#E49542"/>
<path d="M73.9987 105.893C82.7131 105.893 90.5025 101.955 95.6981 95.7656C97.4602 93.6661 96.2944 90.4407 93.6026 89.9227C90.2128 89.2703 87.7627 86.304 87.7627 82.852V63.0752H60.2344V82.8523C60.2344 86.3043 57.7846 89.2706 54.3948 89.923C51.703 90.441 50.5372 93.6664 52.2994 95.7659C57.495 101.955 65.2843 105.893 73.9987 105.893Z" fill="#FFCBBE"/>
<path d="M47.2402 109.464V145.399L49.6791 148H98.3219L100.761 145.399V109.464C100.761 106.959 100.551 104.466 100.145 102.009C96.8549 99.5753 93.2032 97.5799 89.2665 96.1201C85.2745 99.8667 79.9072 102.164 74.0002 102.164C65.3217 102.164 57.8055 97.2093 54.1104 89.9775L51.3501 90.5088C48.6471 96.456 47.2402 102.918 47.2402 109.464Z" fill="#F9F6F9"/>
<path d="M94.0384 90.2897L93.8898 89.9775C92.4046 92.8841 90.3011 95.4217 87.7539 97.4186C91.3657 98.6913 94.7362 100.43 97.8029 102.555C97.1516 98.317 95.8893 94.1837 94.0384 90.2897Z" fill="#DDDAEC"/>
<path d="M12.2734 133.149V140.945C12.2734 144.842 15.432 148 19.3283 148H30.3052V146.888H34.772V148H49.6784V109.795C49.6784 102.894 51.294 96.088 54.3959 89.9229L46.7632 91.3919C26.7427 95.2433 12.2734 112.762 12.2734 133.149Z" fill="#9BC4F9"/>
<path d="M97.3555 100.107C97.9926 103.113 98.3209 106.186 98.3209 109.278V148H113.227V146.887H117.694V148H118.074V137.554C118.074 121.97 109.937 108.001 97.3555 100.107Z" fill="#9BC4F9"/>
<path d="M101.237 91.3914L101.079 91.361L93.8906 89.9775L94.0392 90.2897C95.8901 94.1837 97.1521 98.317 97.804 102.555C108.986 110.303 116.123 123.203 116.123 137.52V146.887H117.695V148H128.672C132.568 148 135.727 144.841 135.727 140.945V133.15C135.727 112.763 121.257 95.2437 101.237 91.3914Z" fill="#7FB2F9"/>
<path d="M34.7713 147.925V134.596C34.7713 133.362 33.7714 132.362 32.538 132.362C31.3046 132.362 30.3047 133.362 30.3047 134.596V147.925C30.3047 147.95 30.3076 147.975 30.3084 148H34.7675C34.7681 147.975 34.7713 147.95 34.7713 147.925Z" fill="#61A2F9"/>
<path d="M115.46 132.362C114.226 132.362 113.227 133.362 113.227 134.596V148H117.693V134.596C117.693 133.362 116.693 132.362 115.46 132.362Z" fill="#61A2F9"/>
<path d="M95.6953 57.2857H104.723C108.554 57.2857 111.659 54.1803 111.659 50.3496V41.678C111.659 37.8474 108.554 34.7417 104.723 34.7417H95.6953V57.2857Z" fill="#365E7D"/>
<path d="M96.2466 63.5886C94.1986 58.7841 93.1979 53.5905 93.1958 48.3591L93.1912 36.576C93.1912 32.0143 92.3816 27.6422 90.8995 23.5942C89.632 23.1493 88.2699 22.9048 86.8503 22.9048C83.5747 22.9048 80.436 24.2189 78.1374 26.5528C75.4908 29.2399 71.8769 30.7528 68.1055 30.7528H57.0899C52.5788 30.7528 48.9219 34.4098 48.9219 38.9209V52.39C49.1286 66.0679 60.2739 77.0936 74.0009 77.0936C83.6759 77.0936 92.0627 71.6121 96.2466 63.5886Z" fill="#FFDDCE"/>
<path d="M99.0796 35.1342C99.0796 28.9023 94.417 23.7628 88.3906 23.0049C90.1149 27.2651 91.0694 31.9196 91.0694 36.7981L91.074 48.2782C91.0763 53.7496 92.1979 59.1787 94.5011 64.1417C94.5332 64.211 94.5653 64.2807 94.5971 64.3504C94.7809 64.7527 94.9471 65.158 95.0995 65.565C97.5516 61.7549 99.0062 57.2412 99.0796 52.3901V35.1342Z" fill="#FFCBBE"/>
<path d="M104.724 57.285H102.311V63.9418C102.311 65.6996 100.881 67.1296 99.1231 67.1296H90.4824C89.2848 67.1296 88.3145 68.1 88.3145 69.2976C88.3145 70.4951 89.2848 71.4655 90.4824 71.4655H99.1231C103.272 71.4655 106.647 68.0904 106.647 63.9418V57.0127C106.036 57.1887 105.391 57.285 104.724 57.285Z" fill="#F9F6F9"/>
<path d="M88.4745 73.9789H81.7006C79.1152 73.9789 77.0195 71.8832 77.0195 69.2978C77.0195 66.7124 79.1152 64.6167 81.7006 64.6167H88.4745C91.0599 64.6167 93.1556 66.7124 93.1556 69.2978C93.1556 71.8829 91.0599 73.9789 88.4745 73.9789Z" fill="#475959"/>
</g>
<defs>
<clipPath id="clip0">
<rect width="148" height="148" fill="white"/>
</clipPath>
</defs>
</svg>
