<svg width="148" height="148" viewBox="0 0 148 148" fill="none" xmlns="http://www.w3.org/2000/svg">
<g clip-path="url(#clip0)">
<path d="M147.741 119.571L142.689 105.613H123.878L118.825 119.571C118.438 120.642 118.487 121.821 118.962 122.856L129.343 145.472C130.049 147.013 131.589 148 133.283 148C134.978 148 136.517 147.013 137.224 145.472L147.605 122.856C148.079 121.821 148.128 120.641 147.741 119.571Z" fill="#F4F1F1"/>
<path d="M147.74 119.571L142.688 105.613H133.283V148C134.978 148 136.517 147.013 137.224 145.472L147.604 122.856C148.079 121.821 148.128 120.641 147.74 119.571Z" fill="#E7DFDD"/>
<path d="M105.806 0H4.33594C1.94134 0 0 1.94134 0 4.33594V143.664C0 146.059 1.94134 148 4.33594 148H105.806C108.2 148 110.141 146.059 110.141 143.664V4.33594C110.141 1.94134 108.2 0 105.806 0Z" fill="#F4F1F1"/>
<path d="M105.805 0H55.0703V148H105.805C108.2 148 110.141 146.059 110.141 143.664V4.33594C110.141 1.94134 108.2 0 105.805 0Z" fill="#E7DFDD"/>
<path d="M96.3737 41.5322H68.8379C66.4433 41.5322 64.502 39.5909 64.502 37.1963C64.502 34.8017 66.4433 32.8604 68.8379 32.8604H96.3737C98.7683 32.8604 100.71 34.8017 100.71 37.1963C100.71 39.5909 98.7683 41.5322 96.3737 41.5322Z" fill="#38336B"/>
<path d="M96.3737 67.8384H68.8379C66.4433 67.8384 64.502 65.897 64.502 63.5024C64.502 61.1078 66.4433 59.1665 68.8379 59.1665H96.3737C98.7683 59.1665 100.71 61.1078 100.71 63.5024C100.71 65.897 98.7683 67.8384 96.3737 67.8384Z" fill="#38336B"/>
<path d="M96.3737 94.1445H68.8379C66.4433 94.1445 64.502 92.2032 64.502 89.8086C64.502 87.414 66.4433 85.4727 68.8379 85.4727H96.3737C98.7683 85.4727 100.71 87.414 100.71 89.8086C100.71 92.2032 98.7683 94.1445 96.3737 94.1445Z" fill="#38336B"/>
<path d="M96.3737 121.458H68.8379C66.4433 121.458 64.502 119.516 64.502 117.122C64.502 114.727 66.4433 112.786 68.8379 112.786H96.3737C98.7683 112.786 100.71 114.727 100.71 117.122C100.71 119.516 98.7683 121.458 96.3737 121.458Z" fill="#38336B"/>
<path d="M24.369 46.7098C23.2188 46.7098 22.1161 46.253 21.3032 45.4396L15.0962 39.2326C13.4028 37.5393 13.4028 34.794 15.0962 33.1007C16.7895 31.4074 19.535 31.4077 21.2281 33.1007L24.369 36.2416L34.4735 26.1372C36.1665 24.4439 38.912 24.4439 40.6054 26.1372C42.2987 27.8305 42.2987 30.5757 40.6054 32.2691L27.4351 45.4396C26.622 46.253 25.5189 46.7098 24.369 46.7098Z" fill="#90D960"/>
<path d="M24.369 73.0159C23.2188 73.0159 22.1161 72.5592 21.3032 71.7458L15.0962 65.5387C13.4028 63.8454 13.4028 61.1002 15.0962 59.4068C16.7895 57.7135 19.535 57.7138 21.2281 59.4068L24.369 62.5478L34.4735 52.4433C36.1665 50.75 38.912 50.75 40.6054 52.4433C42.2987 54.1367 42.2987 56.8819 40.6054 58.5752L27.4351 71.7458C26.622 72.5589 25.5189 73.0159 24.369 73.0159Z" fill="#90D960"/>
<path d="M24.369 99.3215C23.2188 99.3215 22.1161 98.8647 21.3032 98.0513L15.0962 91.8443C13.4028 90.151 13.4028 87.4057 15.0962 85.7124C16.7895 84.0191 19.535 84.0191 21.2281 85.7124L24.369 88.8534L34.4735 78.7489C36.1665 77.0559 38.912 77.0556 40.6054 78.7489C42.2987 80.4422 42.2987 83.1874 40.6054 84.8808L27.4351 98.051C26.622 98.8648 25.5189 99.3215 24.369 99.3215Z" fill="#90D960"/>
<path d="M148.001 14.7162V105.074C148.001 107.471 146.058 109.41 143.665 109.41H122.904C120.508 109.41 118.568 107.471 118.568 105.074V14.7162C118.568 6.60219 125.171 0 133.285 0C141.399 0 148.001 6.60219 148.001 14.7162Z" fill="#FFDA2C"/>
<path d="M133.283 0V109.41H143.663C146.057 109.41 147.999 107.471 147.999 105.074V14.7162C147.999 6.60219 141.397 0 133.283 0V0Z" fill="#FEBF00"/>
<path d="M118.568 27.4346H148.001V36.1064H118.568V27.4346Z" fill="#D20041"/>
<path d="M133.283 27.4346H147.999V36.1064H133.283V27.4346Z" fill="#BA003A"/>
</g>
<defs>
<clipPath id="clip0">
<rect width="148" height="148" fill="white"/>
</clipPath>
</defs>
</svg>
