<svg width="148" height="148" viewBox="0 0 148 148" fill="none" xmlns="http://www.w3.org/2000/svg">
<g clip-path="url(#clip0)">
<path d="M121.313 47.3974V111.867H13.8652V47.3974L67.5904 15.1641L121.313 47.3974Z" fill="#FFA001"/>
<path d="M121.314 47.3974V111.867H67.5918V15.1641L121.314 47.3974Z" fill="#F87F02"/>
<path d="M0 47.3979L13.8657 15.1631H67.5903L53.7246 47.3979H0Z" fill="#FFDA2D"/>
<path d="M135.18 47.3979L121.314 15.1631H67.5898L81.4556 47.3979H135.18Z" fill="#FCBE00"/>
<path d="M31.1348 84.8521H39.8066V93.5239H31.1348V84.8521Z" fill="#FFDA2D"/>
<path d="M147.999 101.124C147.999 118.638 133.801 132.837 116.286 132.837C98.7691 132.837 84.5703 118.638 84.5703 101.124C84.5703 83.6065 98.7691 69.4077 116.286 69.4077C133.801 69.4077 147.999 83.6062 147.999 101.124Z" fill="#83E470"/>
<path d="M148 101.124C148 118.638 133.801 132.837 116.287 132.837V69.4077C133.801 69.4077 148 83.6062 148 101.124Z" fill="#01B763"/>
<path d="M132.883 95.987L116.287 112.582L113.411 115.458L99.6895 101.736L105.823 95.6051L113.411 103.193L116.287 100.317L126.749 89.856L132.883 95.987Z" fill="#F3FDFF"/>
<path d="M132.882 95.987L116.287 112.582V100.317L126.748 89.856L132.882 95.987Z" fill="#D7F3F7"/>
</g>
<defs>
<clipPath id="clip0">
<rect width="148" height="148" fill="white"/>
</clipPath>
</defs>
</svg>
