<svg width="148" height="148" viewBox="0 0 148 148" fill="none" xmlns="http://www.w3.org/2000/svg">
<g clip-path="url(#clip0)">
<path d="M73.9995 99.2075C87.9207 99.2075 99.2061 87.9222 99.2061 74.001C99.2061 60.0798 87.9207 48.7944 73.9995 48.7944C60.0783 48.7944 48.793 60.0798 48.793 74.001C48.793 87.9222 60.0783 99.2075 73.9995 99.2075Z" fill="#FFD064"/>
<path d="M73.9987 101.441C58.8683 101.441 46.5586 89.1308 46.5586 74.0004C46.5586 58.87 58.8683 46.5605 73.9987 46.5605C89.1291 46.5605 101.439 58.87 101.439 74.0004C101.439 89.1308 89.1291 101.441 73.9987 101.441ZM73.9987 51.0274C61.3311 51.0274 51.0255 61.3331 51.0255 74.0004C51.0255 86.6677 61.3311 96.9736 73.9987 96.9736C86.6663 96.9736 96.972 86.668 96.972 74.0004C96.972 61.3328 86.6663 51.0274 73.9987 51.0274Z" fill="#FFC250"/>
<path d="M73.2981 90.0883C69.5892 90.0883 67.4501 89.8157 63.7741 87.8357C62.6881 87.2506 62.2822 85.896 62.8673 84.8103C63.4521 83.7243 64.806 83.3179 65.8929 83.9035C68.876 85.5107 70.2609 85.6417 73.771 85.6203C77.9948 85.5972 80.5501 83.1138 80.8915 80.673C81.1918 78.5238 79.7286 76.8149 76.877 75.9847C71.7357 74.4879 68.7853 73.3259 66.6925 71.9739C64.3776 70.4789 63.2306 67.8051 63.6989 64.9962C64.2516 61.6795 66.9032 58.9676 70.4532 58.0868C77.3213 56.3828 81.8943 59.7769 82.0856 59.922C83.0679 60.6681 83.2592 62.0692 82.5134 63.0514C81.7714 64.0285 80.3807 64.2236 79.3991 63.4905C79.2375 63.3737 76.2182 61.2581 71.5285 62.4221C69.3195 62.9702 68.3115 64.4904 68.1048 65.7308C68.0216 66.2297 67.9536 67.4712 69.116 68.2219C71.2296 69.5871 74.8565 70.7443 78.1258 71.6959C83.1054 73.1455 85.9276 76.912 85.3153 81.2916C84.708 85.6344 80.5562 90.0502 73.7956 90.0872C73.6265 90.0877 73.4609 90.0883 73.2981 90.0883Z" fill="#E49542"/>
<path d="M73.7841 94.1623C72.5504 94.1623 71.5508 93.1624 71.5508 91.929V87.8529C71.5508 86.6195 72.5506 85.6196 73.7841 85.6196C75.0178 85.6196 76.0174 86.6195 76.0174 87.8529V91.929C76.0174 93.1621 75.0175 94.1623 73.7841 94.1623Z" fill="#E49542"/>
<path d="M73.7841 62.089C72.5504 62.089 71.5508 61.0891 71.5508 59.8557V56.0722C71.5508 54.8387 72.5506 53.8389 73.7841 53.8389C75.0178 53.8389 76.0174 54.8387 76.0174 56.0722V59.8557C76.0174 61.0891 75.0175 62.089 73.7841 62.089Z" fill="#E49542"/>
<path d="M105.717 114.106L74.9968 114.155C71.3589 114.09 68.2452 116.75 67.7416 120.354C67.2569 123.823 69.3413 127.137 72.6782 128.203L104.579 124.301L105.717 114.106Z" fill="#EAAC9D"/>
<path d="M96.5317 120.208L65.8113 120.257C62.1734 120.192 59.0596 122.853 58.5561 126.456C58.0713 129.925 60.1557 133.239 63.4927 134.305L95.3936 130.403L96.5317 120.208Z" fill="#FFCBBE"/>
<path d="M54.0551 137.462C54.9255 138.957 56.3309 140.136 58.0826 140.696L65.0649 142.925L79.3946 147.504C81.7797 148.265 84.3558 148.148 86.6591 147.172L128.914 129.283L134.475 104.141C140.168 104.087 134.475 104.157 134.475 104.141L128.713 90.6013L115.326 88.8817C109.086 88.0807 102.769 88.4128 96.6777 89.846C96.4192 89.9064 96.1617 89.9682 95.9062 90.0339C94.0735 90.4952 92.2596 91.0563 90.4779 91.7168L88.7128 92.3698C85.0666 93.7226 83.155 97.7296 84.4 101.413C84.5567 101.877 84.7573 102.317 84.9975 102.729C86.1494 104.708 88.1977 106.047 90.5325 106.269L104.999 107.64L79.6224 126.992L60.4018 126.648C56.7648 126.583 53.651 129.243 53.148 132.847C52.9174 134.495 53.2671 136.108 54.0551 137.462Z" fill="#FFDDCE"/>
<path d="M65.0645 142.926L79.3941 147.504C81.7792 148.265 84.3553 148.148 86.6586 147.172L128.913 129.283L128.792 105.96C128.611 132.994 72.8995 145.429 65.0645 142.926Z" fill="#FFCBBE"/>
<path d="M128.782 104.195C128.78 104.58 128.782 104.969 128.79 105.367L128.782 104.195Z" fill="#FFCBBE"/>
<path d="M128.913 129.283L146.344 130.008L146.25 111.613L146.144 91.3271L128.713 90.6016L128.827 112.748L128.913 129.283Z" fill="#DB5C6E"/>
<path d="M128.912 129.283L146.344 130.008L146.25 111.613C137.572 117.62 128.826 112.748 128.826 112.748L128.912 129.283Z" fill="#D64553"/>
<path d="M42.2812 33.8939L73.0017 33.845C76.6395 33.9104 79.7533 31.2498 80.2568 27.6464C80.7416 24.177 78.6572 20.8629 75.3202 19.7969L43.4193 23.6995L42.2812 33.8939Z" fill="#EAAC9D"/>
<path d="M51.4688 27.7918L82.1892 27.743C85.827 27.8083 88.9408 25.1478 89.4443 21.5443C89.9291 18.075 87.8447 14.7609 84.5077 13.6948L52.6068 17.5975L51.4688 27.7918Z" fill="#FFCBBE"/>
<path d="M93.9428 10.5384C93.0724 9.04311 91.667 7.86402 89.9153 7.30497L82.933 5.07514L68.6033 0.496972C66.2182 -0.264418 63.6421 -0.147059 61.3389 0.828238L19.084 18.7174L19.2051 42.0407C19.2025 42.211 19.2042 42.381 19.2071 42.5527C19.2071 42.5804 19.2089 42.6073 19.2077 42.6333L19.2152 43.8058C19.2146 43.8246 19.2141 43.8433 19.2141 43.8595L19.2849 57.3992L32.6717 59.1189C38.9122 59.9198 45.2288 59.5877 51.3202 58.1545C51.5787 58.0941 51.8362 58.0323 52.0917 57.9666C53.9244 57.5053 55.7383 56.9442 57.52 56.2837L59.2851 55.6307C62.9313 54.2779 64.8429 50.2709 63.5979 46.5874C63.4412 46.1238 63.2406 45.6835 63.0004 45.271C61.8485 43.2924 59.8002 41.9535 57.4654 41.7315L42.9987 40.3607L68.3755 21.0088L87.5961 21.3528C91.2331 21.4179 94.3469 18.757 94.8499 15.1539C95.0805 13.5054 94.7308 11.8921 93.9428 10.5384Z" fill="#FFDDCE"/>
<path d="M82.933 5.07514L68.6033 0.496972C66.2182 -0.264418 63.6421 -0.147059 61.3389 0.828238L19.084 18.7174L19.2051 42.0407C19.3861 15.007 75.0979 2.57157 82.933 5.07514Z" fill="#FFCBBE"/>
<path d="M19.2165 43.8057C19.2188 43.4207 19.2165 43.0313 19.209 42.6333L19.2165 43.8057Z" fill="#FFCBBE"/>
<path d="M19.0856 18.7179L1.6543 17.9927L1.74824 36.3877L1.85433 56.6739L19.2857 57.3994L19.1718 35.2535L19.0856 18.7179Z" fill="#80B4FB"/>
<path d="M19.0856 18.7182L1.6543 17.9927L1.74824 36.3878C10.4262 30.381 19.1718 35.2535 19.1718 35.2535L19.0856 18.7182Z" fill="#61A2F9"/>
</g>
<defs>
<clipPath id="clip0">
<rect width="148" height="148" fill="white"/>
</clipPath>
</defs>
</svg>
