<svg width="148" height="148" viewBox="0 0 148 148" fill="none" xmlns="http://www.w3.org/2000/svg">
<g clip-path="url(#clip0)">
<path d="M128.313 13.0144C118.393 5.21502 97.164 0.306935 96.2637 0.103467C94.6036 -0.274567 92.9513 0.764737 92.5735 2.42485C92.5227 2.64826 92.497 2.87687 92.4967 3.10606C92.4967 7.2679 83.9571 12.3546 73.9996 12.3546C64.0421 12.3546 55.5025 7.2679 55.5025 3.10606C55.5031 2.16791 55.0765 1.28063 54.3433 0.695373C53.6184 0.0927732 52.6531 -0.13555 51.7352 0.0789005C50.8349 0.282368 29.6127 5.19652 19.6737 12.9899C9.40781 21.0916 6.48527 60.1328 6.17689 64.5536C6.09249 65.81 6.78093 66.9915 7.91561 67.5377C15.159 70.8921 22.9029 73.0371 30.8396 73.8883V138.751C30.8416 139.891 31.4722 140.937 32.4797 141.471C32.9791 141.742 45.0823 148 73.9996 148C102.917 148 115.02 141.742 115.519 141.471C116.527 140.937 117.158 139.891 117.16 138.751V73.8883C125.094 73.0366 132.836 70.8912 140.077 67.5377C141.214 66.9932 141.906 65.8114 141.822 64.5536C141.514 60.1328 138.591 21.0916 128.313 13.0144Z" fill="#03A9F4"/>
<path d="M33.9228 74.0121C32.2202 74.0121 30.8399 72.6317 30.8399 70.9291V52.432C31.0919 46.5393 29.224 40.7511 25.5743 36.1176C24.3916 34.8931 24.4255 32.9413 25.65 31.7584C26.8448 30.6046 28.7387 30.6046 29.9332 31.7584C34.7931 37.5225 37.3162 44.8988 37.0052 52.432V70.9291C37.0058 72.6317 35.6254 74.0121 33.9228 74.0121Z" fill="#0288D1"/>
<path d="M114.078 74.0119C112.375 74.0119 110.995 72.6316 110.995 70.929V52.4319C110.681 44.8975 113.202 37.5189 118.061 31.7522C119.244 30.5276 121.195 30.4935 122.42 31.6765C123.645 32.8594 123.678 34.8108 122.496 36.0357C122.471 36.0614 122.446 36.0866 122.42 36.1114C118.771 40.7475 116.905 46.538 117.161 52.4319V70.929C117.161 72.6316 115.78 74.0119 114.078 74.0119Z" fill="#0288D1"/>
<path d="M97.541 0.732164C96.8367 0.141414 95.9028 -0.0987592 95.0008 0.0786971C88.0638 1.48534 81.0523 2.49603 74.0006 3.10615C66.9485 2.49632 59.9373 1.48563 53.0003 0.0786971C52.0983 -0.0978921 51.1648 0.142281 50.4601 0.732164C49.7509 1.31656 49.3396 2.18707 49.3379 3.10586C49.3379 12.3544 62.0884 18.52 74.0006 18.52C85.9127 18.52 98.6632 12.3544 98.6632 3.10586C98.6618 2.18707 98.2502 1.31656 97.541 0.732164Z" fill="#1976D2"/>
</g>
<defs>
<clipPath id="clip0">
<rect width="148" height="148" fill="white"/>
</clipPath>
</defs>
</svg>
