<svg width="148" height="148" viewBox="0 0 148 148" fill="none" xmlns="http://www.w3.org/2000/svg">
<g clip-path="url(#clip0)">
<path d="M126.147 47.6338H95.5879V103.021H145.657V78.0915L139.818 57.9097C138.057 51.8237 132.483 47.6338 126.147 47.6338Z" fill="#FF7058"/>
<path d="M138.347 77.8353L133.143 59.8456C132.245 56.7532 129.369 54.5889 126.147 54.5889H102.543V77.8353H138.347Z" fill="#84DBFF"/>
<path d="M138.354 77.8261H102.531V54.5796L138.354 77.8261Z" fill="#CDD6E0"/>
<path d="M138.347 77.8353L133.143 59.8456C132.245 56.7532 129.369 54.5889 126.147 54.5889H102.543L138.347 77.8353Z" fill="#F2F2F2"/>
<path d="M9.24922 19.8271H86.3383C91.4439 19.8271 95.5875 23.9676 95.5875 29.0764V103.018H0V29.0764C0 23.9679 4.14047 19.8271 9.24922 19.8271Z" fill="#FFD15C"/>
<path d="M62.6489 19.8423V44.2816L59.0723 40.7054L55.3235 44.4545L51.5776 40.7054L47.8316 44.4545L44.0793 40.7054L40.2843 44.4545L36.5412 40.7054L32.9219 44.325V19.8423H62.6489Z" fill="#F2F2F2"/>
<path d="M147.999 103.015V113.466H0.0117188V103.015H15.4579C19.0651 96.5402 26.002 92.1621 33.9564 92.1621C41.8798 92.1621 48.8167 96.5402 52.4548 103.015H102.154C105.761 96.5402 112.664 92.1621 120.619 92.1621C128.573 92.1621 135.479 96.5402 139.117 103.015H147.999Z" fill="#334A5E"/>
<path d="M135.391 113.401C135.391 121.559 128.778 128.172 120.62 128.172C112.463 128.172 105.855 121.559 105.855 113.401C105.855 105.244 112.465 98.6304 120.62 98.6304C128.781 98.6304 135.391 105.244 135.391 113.401Z" fill="#40596B"/>
<path d="M126.557 113.401C126.557 116.679 123.9 119.333 120.626 119.333C117.348 119.333 114.688 116.679 114.688 113.401C114.688 110.124 117.345 107.469 120.626 107.469C123.9 107.466 126.557 110.124 126.557 113.401Z" fill="#ACB3BA"/>
<path d="M48.7158 113.401C48.7158 121.559 42.0995 128.172 33.9448 128.172C25.787 128.172 19.1738 121.559 19.1738 113.401C19.1738 105.244 25.787 98.6304 33.9448 98.6304C42.0995 98.6304 48.7158 105.244 48.7158 113.401Z" fill="#40596B"/>
<path d="M39.8765 113.401C39.8765 116.679 37.222 119.333 33.9446 119.333C30.6672 119.333 28.0098 116.679 28.0098 113.401C28.0098 110.124 30.6675 107.469 33.9446 107.469C37.2217 107.469 39.8765 110.124 39.8765 113.401Z" fill="#ACB3BA"/>
</g>
<defs>
<clipPath id="clip0">
<rect width="148" height="148" fill="white"/>
</clipPath>
</defs>
</svg>
