<svg width="146" height="148" viewBox="0 0 146 148" fill="none" xmlns="http://www.w3.org/2000/svg">
<path d="M73 99.2075C86.9212 99.2075 98.2065 87.9222 98.2065 74.001C98.2065 60.0798 86.9212 48.7944 73 48.7944C59.0788 48.7944 47.7935 60.0798 47.7935 74.001C47.7935 87.9222 59.0788 99.2075 73 99.2075Z" fill="#FFD064"/>
<path d="M72.9997 101.441C57.8693 101.441 45.5596 89.1308 45.5596 74.0004C45.5596 58.87 57.8693 46.5605 72.9997 46.5605C88.1301 46.5605 100.44 58.87 100.44 74.0004C100.44 89.1308 88.1301 101.441 72.9997 101.441ZM72.9997 51.0274C60.3321 51.0274 50.0265 61.3331 50.0265 74.0004C50.0265 86.6677 60.3321 96.9736 72.9997 96.9736C85.6673 96.9736 95.9729 86.668 95.9729 74.0004C95.9729 61.3328 85.6673 51.0274 72.9997 51.0274Z" fill="#FFC250"/>
<path d="M72.2996 90.0883C68.5906 90.0883 66.4516 89.8157 62.7756 87.8357C61.6895 87.2506 61.2837 85.896 61.8688 84.8103C62.4535 83.7243 63.8075 83.3179 64.8944 83.9035C67.8775 85.5107 69.2624 85.6417 72.7725 85.6203C76.9963 85.5972 79.5516 83.1138 79.893 80.673C80.1933 78.5238 78.7301 76.8149 75.8785 75.9847C70.7372 74.4879 67.7867 73.3259 65.6939 71.9739C63.3791 70.4789 62.2321 67.8051 62.7004 64.9962C63.2531 61.6795 65.9047 58.9676 69.4546 58.0868C76.3228 56.3828 80.8957 59.7769 81.0871 59.922C82.0693 60.6681 82.2607 62.0692 81.5149 63.0514C80.7729 64.0285 79.3822 64.2236 78.4005 63.4905C78.239 63.3737 75.2197 61.2581 70.5299 62.4221C68.3209 62.9702 67.313 64.4904 67.1063 65.7308C67.023 66.2297 66.9551 67.4712 68.1174 68.2219C70.2311 69.5871 73.8579 70.7443 77.1272 71.6959C82.1069 73.1455 84.929 76.912 84.3168 81.2916C83.7095 85.6344 79.5577 90.0502 72.7971 90.0872C72.628 90.0877 72.4623 90.0883 72.2996 90.0883Z" fill="#E49542"/>
<path d="M72.7855 94.1623C71.5518 94.1623 70.5522 93.1624 70.5522 91.929V87.8529C70.5522 86.6195 71.5521 85.6196 72.7855 85.6196C74.0193 85.6196 75.0188 86.6195 75.0188 87.8529V91.929C75.0188 93.1621 74.019 94.1623 72.7855 94.1623Z" fill="#E49542"/>
<path d="M72.7855 62.089C71.5518 62.089 70.5522 61.0891 70.5522 59.8557V56.0722C70.5522 54.8387 71.5521 53.8389 72.7855 53.8389C74.0193 53.8389 75.0188 54.8387 75.0188 56.0722V59.8557C75.0188 61.0891 74.019 62.089 72.7855 62.089Z" fill="#E49542"/>
<path d="M104.717 114.106L73.9968 114.155C70.3589 114.09 67.2452 116.75 66.7416 120.354C66.2569 123.823 68.3413 127.137 71.6782 128.203L103.579 124.301L104.717 114.106Z" fill="#EAAC9D"/>
<path d="M95.5317 120.208L64.8113 120.257C61.1734 120.192 58.0596 122.853 57.5561 126.456C57.0713 129.925 59.1557 133.239 62.4927 134.305L94.3936 130.403L95.5317 120.208Z" fill="#FFCBBE"/>
<path d="M53.0556 137.462C53.926 138.957 55.3314 140.136 57.0831 140.696L64.0654 142.925L78.3951 147.504C80.7802 148.265 83.3563 148.148 85.6595 147.172L127.914 129.283L133.476 104.141C139.168 104.087 133.476 104.157 133.476 104.141L127.714 90.6013L114.327 88.8817C108.086 88.0807 101.77 88.4128 95.6782 89.846C95.4197 89.9064 95.1622 89.9682 94.9066 90.0339C93.074 90.4952 91.2601 91.0563 89.4783 91.7168L87.7133 92.3698C84.0671 93.7226 82.1555 97.7296 83.4005 101.413C83.5572 101.877 83.7578 102.317 83.998 102.729C85.1499 104.708 87.1982 106.047 89.533 106.269L104 107.64L78.6229 126.992L59.4023 126.648C55.7653 126.583 52.6515 129.243 52.1485 132.847C51.9179 134.495 52.2676 136.108 53.0556 137.462Z" fill="#FFDDCE"/>
<path d="M64.0649 142.926L78.3946 147.504C80.7797 148.265 83.3558 148.148 85.6591 147.172L127.914 129.283L127.793 105.96C127.612 132.994 71.9 145.429 64.0649 142.926Z" fill="#FFCBBE"/>
<path d="M127.783 104.195C127.78 104.58 127.783 104.969 127.79 105.367L127.783 104.195Z" fill="#FFCBBE"/>
<path d="M127.914 129.283L145.345 130.008L145.251 111.613L145.145 91.3271L127.714 90.6016L127.828 112.748L127.914 129.283Z" fill="#DB5C6E"/>
<path d="M127.913 129.283L145.345 130.008L145.251 111.613C136.573 117.62 127.827 112.748 127.827 112.748L127.913 129.283Z" fill="#D64553"/>
<path d="M41.2822 33.8939L72.0026 33.845C75.6405 33.9104 78.7543 31.2498 79.2578 27.6464C79.7426 24.177 77.6581 20.8629 74.3212 19.7969L42.4203 23.6995L41.2822 33.8939Z" fill="#EAAC9D"/>
<path d="M50.4678 27.7918L81.1882 27.743C84.826 27.8083 87.9398 25.1478 88.4434 21.5443C88.9281 18.075 86.8437 14.7609 83.5068 13.6948L51.6058 17.5975L50.4678 27.7918Z" fill="#FFCBBE"/>
<path d="M92.9438 10.5384C92.0734 9.04311 90.668 7.86402 88.9163 7.30497L81.934 5.07514L67.6043 0.496972C65.2192 -0.264418 62.6431 -0.147059 60.3398 0.828238L18.085 18.7174L18.2061 42.0407C18.2035 42.211 18.2052 42.381 18.2081 42.5527C18.2081 42.5804 18.2098 42.6073 18.2087 42.6333L18.2162 43.8058C18.2156 43.8246 18.215 43.8433 18.215 43.8595L18.2859 57.3992L31.6726 59.1189C37.9132 59.9198 44.2298 59.5877 50.3212 58.1545C50.5796 58.0941 50.8372 58.0323 51.0927 57.9666C52.9254 57.5053 54.7392 56.9442 56.521 56.2837L58.286 55.6307C61.9323 54.2779 63.8438 50.2709 62.5989 46.5874C62.4422 46.1238 62.2416 45.6835 62.0014 45.271C60.8494 43.2924 58.8011 41.9535 56.4664 41.7315L41.9997 40.3607L67.3765 21.0088L86.5971 21.3528C90.2341 21.4179 93.3479 18.757 93.8508 15.1539C94.0815 13.5054 93.7318 11.8921 92.9438 10.5384Z" fill="#FFDDCE"/>
<path d="M81.934 5.07514L67.6043 0.496972C65.2192 -0.264418 62.6431 -0.147059 60.3398 0.828238L18.085 18.7174L18.2061 42.0407C18.387 15.007 74.0989 2.57157 81.934 5.07514Z" fill="#FFCBBE"/>
<path d="M18.216 43.8057C18.2183 43.4207 18.216 43.0313 18.2085 42.6333L18.216 43.8057Z" fill="#FFCBBE"/>
<path d="M18.0856 18.7179L0.654297 17.9927L0.748242 36.3877L0.854328 56.6739L18.2857 57.3994L18.1718 35.2535L18.0856 18.7179Z" fill="#80B4FB"/>
<path d="M18.0856 18.7182L0.654297 17.9927L0.748242 36.3878C9.42619 30.381 18.1718 35.2535 18.1718 35.2535L18.0856 18.7182Z" fill="#61A2F9"/>
</svg>
