<svg width="328" height="407" viewBox="0 0 328 407" fill="none" xmlns="http://www.w3.org/2000/svg">
<path d="M274.265 32.4683V0.306641H83.0186V289.762H303.727V32.4683H274.265Z" fill="white"/>
<path d="M274.367 0.306641V32.4683H303.727L274.367 0.306641Z" fill="#E2E2E2"/>
<path d="M107.317 272.243C107.317 287.227 95.1676 299.376 80.1837 299.376C65.1999 299.376 53.0508 287.227 53.0508 272.243C53.0508 257.259 65.1999 245.11 80.1837 245.11C95.2689 245.211 107.317 257.259 107.317 272.243Z" fill="#E2E2E2"/>
<path opacity="0.3" d="M64.6939 157.333C66.9212 224.76 123.414 277.609 190.842 275.381C258.269 273.154 311.118 216.661 308.89 149.233C306.663 81.8058 250.17 28.9573 182.742 31.1846C115.315 33.5132 62.4665 89.9052 64.6939 157.333Z" fill="#F6FEFF" stroke="#2A4074" stroke-width="6" stroke-miterlimit="10"/>
<path d="M327.924 148.626C330.455 226.582 269.406 291.782 191.449 294.415C113.493 296.946 48.2927 235.897 45.6604 157.94C43.1294 79.9834 104.178 14.7833 182.135 12.151C260.092 9.61996 325.292 70.7704 327.924 148.626ZM312.029 149.233C309.599 80.0846 251.891 26.0212 182.743 28.1473C113.594 30.5771 59.5306 88.2853 61.6567 157.434C64.0865 226.582 121.795 280.646 190.943 278.52C260.092 276.09 314.155 218.382 312.029 149.233Z" fill="#E2E2E2"/>
<path d="M61.8591 339.164H0V407.3L61.8591 339.164Z" fill="#161D21"/>
<path d="M63.5802 337.24L98.0026 299.274L50.8237 256.651L32.3976 276.9V277.001L0 312.638V339.164H61.8591L63.5802 337.24Z" fill="#161D21"/>
<path d="M99.512 141.368V130.808L130.904 85.88H146.552V129.656H155V141.368H146.552V155H133.112V141.368H99.512ZM133.976 100.28L114.296 129.656H133.976V100.28ZM163.557 119.096C163.557 108.024 165.541 99.352 169.509 93.08C173.541 86.808 180.197 83.672 189.477 83.672C198.757 83.672 205.381 86.808 209.349 93.08C213.381 99.352 215.397 108.024 215.397 119.096C215.397 130.232 213.381 138.968 209.349 145.304C205.381 151.64 198.757 154.808 189.477 154.808C180.197 154.808 173.541 151.64 169.509 145.304C165.541 138.968 163.557 130.232 163.557 119.096ZM202.149 119.096C202.149 114.36 201.829 110.392 201.189 107.192C200.613 103.928 199.397 101.272 197.541 99.224C195.749 97.176 193.061 96.152 189.477 96.152C185.893 96.152 183.173 97.176 181.317 99.224C179.525 101.272 178.309 103.928 177.669 107.192C177.093 110.392 176.805 114.36 176.805 119.096C176.805 123.96 177.093 128.056 177.669 131.384C178.245 134.648 179.461 137.304 181.317 139.352C183.173 141.336 185.893 142.328 189.477 142.328C193.061 142.328 195.781 141.336 197.637 139.352C199.493 137.304 200.709 134.648 201.285 131.384C201.861 128.056 202.149 123.96 202.149 119.096ZM225.043 141.368V130.808L256.435 85.88H272.083V129.656H280.531V141.368H272.083V155H258.643V141.368H225.043ZM259.507 100.28L239.827 129.656H259.507V100.28Z" fill="#212121"/>
<path d="M115.783 173.004H117.687V177.834C117.687 178.067 117.683 178.329 117.673 178.618C117.664 178.907 117.655 179.192 117.645 179.472C117.636 179.743 117.627 179.981 117.617 180.186C117.608 180.382 117.599 180.517 117.589 180.592H117.631L122.251 173.004H124.785V183H122.895V178.198C122.895 177.946 122.9 177.671 122.909 177.372C122.919 177.064 122.928 176.77 122.937 176.49C122.956 176.21 122.97 175.967 122.979 175.762C122.998 175.547 123.012 175.407 123.021 175.342H122.965L118.331 183H115.783V173.004ZM129.927 175.216C130.477 175.216 130.991 175.291 131.467 175.44C131.952 175.58 132.339 175.799 132.629 176.098C132.927 176.397 133.077 176.779 133.077 177.246C133.077 177.703 132.937 178.067 132.657 178.338C132.386 178.609 132.017 178.805 131.551 178.926V178.996C131.877 179.071 132.171 179.178 132.433 179.318C132.694 179.449 132.899 179.631 133.049 179.864C133.207 180.088 133.287 180.391 133.287 180.774C133.287 181.194 133.151 181.586 132.881 181.95C132.619 182.305 132.209 182.594 131.649 182.818C131.098 183.033 130.389 183.14 129.521 183.14C128.251 183.14 127.271 182.981 126.581 182.664V180.942C126.898 181.091 127.285 181.227 127.743 181.348C128.209 181.469 128.704 181.53 129.227 181.53C129.796 181.53 130.277 181.465 130.669 181.334C131.061 181.203 131.257 180.975 131.257 180.648C131.257 180.041 130.533 179.738 129.087 179.738H128.275V178.296H129.045C129.735 178.296 130.267 178.24 130.641 178.128C131.023 178.016 131.215 177.806 131.215 177.498C131.215 177.255 131.093 177.073 130.851 176.952C130.608 176.821 130.211 176.756 129.661 176.756C129.297 176.756 128.9 176.798 128.471 176.882C128.041 176.966 127.635 177.087 127.253 177.246L126.637 175.79C127.075 175.622 127.556 175.487 128.079 175.384C128.601 175.272 129.217 175.216 129.927 175.216ZM141.682 177.358C141.682 177.769 141.552 178.119 141.29 178.408C141.038 178.697 140.66 178.884 140.156 178.968V179.024C140.688 179.089 141.113 179.271 141.43 179.57C141.757 179.869 141.92 180.251 141.92 180.718C141.92 181.157 141.804 181.549 141.57 181.894C141.346 182.239 140.987 182.51 140.492 182.706C139.998 182.902 139.349 183 138.546 183H134.906V175.356H138.546C139.144 175.356 139.676 175.421 140.142 175.552C140.618 175.673 140.992 175.879 141.262 176.168C141.542 176.457 141.682 176.854 141.682 177.358ZM139.568 177.526C139.568 177.059 139.2 176.826 138.462 176.826H136.992V178.338H138.224C138.663 178.338 138.994 178.277 139.218 178.156C139.452 178.025 139.568 177.815 139.568 177.526ZM139.764 180.606C139.764 180.307 139.648 180.093 139.414 179.962C139.181 179.822 138.831 179.752 138.364 179.752H136.992V181.558H138.406C138.798 181.558 139.12 181.488 139.372 181.348C139.634 181.199 139.764 180.951 139.764 180.606ZM145.727 178.38C145.727 178.539 145.718 178.735 145.699 178.968C145.69 179.201 145.676 179.439 145.657 179.682C145.648 179.925 145.634 180.139 145.615 180.326C145.596 180.513 145.582 180.643 145.573 180.718L149.101 175.356H151.607V183H149.591V179.948C149.591 179.696 149.6 179.421 149.619 179.122C149.638 178.814 149.656 178.529 149.675 178.268C149.703 177.997 149.722 177.792 149.731 177.652L146.217 183H143.711V175.356H145.727V178.38ZM155.873 175.356V178.296H158.785V175.356H160.871V183H158.785V179.85H155.873V183H153.787V175.356H155.873ZM165.073 178.38C165.073 178.539 165.064 178.735 165.045 178.968C165.036 179.201 165.022 179.439 165.003 179.682C164.994 179.925 164.98 180.139 164.961 180.326C164.942 180.513 164.928 180.643 164.919 180.718L168.447 175.356H170.953V183H168.937V179.948C168.937 179.696 168.946 179.421 168.965 179.122C168.984 178.814 169.002 178.529 169.021 178.268C169.049 177.997 169.068 177.792 169.077 177.652L165.563 183H163.057V175.356H165.073V178.38ZM179.461 176.924H176.955V183H174.869V176.924H172.363V175.356H179.461V176.924ZM183.885 175.216C184.939 175.216 185.775 175.519 186.391 176.126C187.007 176.723 187.315 177.577 187.315 178.688V179.696H182.387C182.405 180.284 182.578 180.746 182.905 181.082C183.241 181.418 183.703 181.586 184.291 181.586C184.785 181.586 185.233 181.539 185.635 181.446C186.036 181.343 186.451 181.189 186.881 180.984V182.594C186.507 182.781 186.111 182.916 185.691 183C185.28 183.093 184.781 183.14 184.193 183.14C183.427 183.14 182.751 183 182.163 182.72C181.575 182.431 181.113 181.997 180.777 181.418C180.441 180.839 180.273 180.111 180.273 179.234C180.273 178.338 180.422 177.596 180.721 177.008C181.029 176.411 181.453 175.963 181.995 175.664C182.536 175.365 183.166 175.216 183.885 175.216ZM183.899 176.7C183.497 176.7 183.161 176.831 182.891 177.092C182.629 177.353 182.475 177.759 182.429 178.31H185.355C185.345 177.843 185.224 177.461 184.991 177.162C184.757 176.854 184.393 176.7 183.899 176.7ZM191.022 180.942L189.384 184.876H188.124L189.034 180.942H191.022ZM199.005 183.14C197.866 183.14 196.984 182.827 196.359 182.202C195.743 181.567 195.435 180.573 195.435 179.22C195.435 178.287 195.593 177.526 195.911 176.938C196.228 176.35 196.667 175.916 197.227 175.636C197.796 175.356 198.449 175.216 199.187 175.216C199.709 175.216 200.162 175.267 200.545 175.37C200.937 175.473 201.277 175.594 201.567 175.734L200.951 177.344C200.624 177.213 200.316 177.106 200.027 177.022C199.747 176.938 199.467 176.896 199.187 176.896C198.104 176.896 197.563 177.666 197.563 179.206C197.563 179.971 197.703 180.536 197.983 180.9C198.272 181.264 198.673 181.446 199.187 181.446C199.625 181.446 200.013 181.39 200.349 181.278C200.685 181.157 201.011 180.993 201.329 180.788V182.566C201.011 182.771 200.675 182.916 200.321 183C199.975 183.093 199.537 183.14 199.005 183.14ZM209.416 176.924H206.91V183H204.824V176.924H202.318V175.356H209.416V176.924ZM215.082 175.216C215.941 175.216 216.636 175.552 217.168 176.224C217.7 176.887 217.966 177.867 217.966 179.164C217.966 180.461 217.691 181.451 217.14 182.132C216.59 182.804 215.885 183.14 215.026 183.14C214.476 183.14 214.037 183.042 213.71 182.846C213.384 182.641 213.118 182.412 212.912 182.16H212.8C212.875 182.552 212.912 182.925 212.912 183.28V186.36H210.826V175.356H212.52L212.814 176.35H212.912C213.118 176.042 213.393 175.776 213.738 175.552C214.084 175.328 214.532 175.216 215.082 175.216ZM214.41 176.882C213.869 176.882 213.486 177.05 213.262 177.386C213.048 177.722 212.931 178.235 212.912 178.926V179.15C212.912 179.887 213.02 180.457 213.234 180.858C213.458 181.25 213.86 181.446 214.438 181.446C214.914 181.446 215.264 181.25 215.488 180.858C215.722 180.457 215.838 179.883 215.838 179.136C215.838 177.633 215.362 176.882 214.41 176.882ZM222.822 175.202C223.848 175.202 224.632 175.426 225.174 175.874C225.724 176.313 226 176.989 226 177.904V183H224.544L224.138 181.964H224.082C223.755 182.375 223.41 182.673 223.046 182.86C222.682 183.047 222.182 183.14 221.548 183.14C220.866 183.14 220.302 182.944 219.854 182.552C219.406 182.151 219.182 181.539 219.182 180.718C219.182 179.906 219.466 179.309 220.036 178.926C220.605 178.534 221.459 178.319 222.598 178.282L223.928 178.24V177.904C223.928 177.503 223.82 177.209 223.606 177.022C223.4 176.835 223.111 176.742 222.738 176.742C222.364 176.742 222 176.798 221.646 176.91C221.291 177.013 220.936 177.143 220.582 177.302L219.896 175.888C220.306 175.673 220.759 175.505 221.254 175.384C221.758 175.263 222.28 175.202 222.822 175.202ZM223.116 179.486C222.444 179.505 221.977 179.626 221.716 179.85C221.454 180.074 221.324 180.368 221.324 180.732C221.324 181.049 221.417 181.278 221.604 181.418C221.79 181.549 222.033 181.614 222.332 181.614C222.78 181.614 223.158 181.483 223.466 181.222C223.774 180.951 223.928 180.573 223.928 180.088V179.458L223.116 179.486ZM230.221 175.356V178.296H233.133V175.356H235.219V183H233.133V179.85H230.221V183H228.135V175.356H230.221ZM239.421 178.38C239.421 178.539 239.411 178.735 239.393 178.968C239.383 179.201 239.369 179.439 239.351 179.682C239.341 179.925 239.327 180.139 239.309 180.326C239.29 180.513 239.276 180.643 239.267 180.718L242.795 175.356H245.301V183H243.285V179.948C243.285 179.696 243.294 179.421 243.312 179.122C243.331 178.814 243.35 178.529 243.369 178.268C243.397 177.997 243.415 177.792 243.425 177.652L239.91 183H237.405V175.356H239.421V178.38ZM255.825 185.744H253.949V183H247.481V175.356H249.567V181.432H252.619V175.356H254.705V181.474H255.825V185.744ZM260.255 175.202C261.282 175.202 262.066 175.426 262.607 175.874C263.158 176.313 263.433 176.989 263.433 177.904V183H261.977L261.571 181.964H261.515C261.189 182.375 260.843 182.673 260.479 182.86C260.115 183.047 259.616 183.14 258.981 183.14C258.3 183.14 257.735 182.944 257.287 182.552C256.839 182.151 256.615 181.539 256.615 180.718C256.615 179.906 256.9 179.309 257.469 178.926C258.039 178.534 258.893 178.319 260.031 178.282L261.361 178.24V177.904C261.361 177.503 261.254 177.209 261.039 177.022C260.834 176.835 260.545 176.742 260.171 176.742C259.798 176.742 259.434 176.798 259.079 176.91C258.725 177.013 258.37 177.143 258.015 177.302L257.329 175.888C257.74 175.673 258.193 175.505 258.687 175.384C259.191 175.263 259.714 175.202 260.255 175.202ZM260.549 179.486C259.877 179.505 259.411 179.626 259.149 179.85C258.888 180.074 258.757 180.368 258.757 180.732C258.757 181.049 258.851 181.278 259.037 181.418C259.224 181.549 259.467 181.614 259.765 181.614C260.213 181.614 260.591 181.483 260.899 181.222C261.207 180.951 261.361 180.573 261.361 180.088V179.458L260.549 179.486ZM150.699 196.356V199.296H153.611V196.356H155.697V204H153.611V200.85H150.699V204H148.613V196.356H150.699ZM161.032 196.216C162.087 196.216 162.922 196.519 163.538 197.126C164.154 197.723 164.462 198.577 164.462 199.688V200.696H159.534C159.553 201.284 159.725 201.746 160.052 202.082C160.388 202.418 160.85 202.586 161.438 202.586C161.933 202.586 162.381 202.539 162.782 202.446C163.183 202.343 163.599 202.189 164.028 201.984V203.594C163.655 203.781 163.258 203.916 162.838 204C162.427 204.093 161.928 204.14 161.34 204.14C160.575 204.14 159.898 204 159.31 203.72C158.722 203.431 158.26 202.997 157.924 202.418C157.588 201.839 157.42 201.111 157.42 200.234C157.42 199.338 157.569 198.596 157.868 198.008C158.176 197.411 158.601 196.963 159.142 196.664C159.683 196.365 160.313 196.216 161.032 196.216ZM161.046 197.7C160.645 197.7 160.309 197.831 160.038 198.092C159.777 198.353 159.623 198.759 159.576 199.31H162.502C162.493 198.843 162.371 198.461 162.138 198.162C161.905 197.854 161.541 197.7 161.046 197.7ZM171.575 196.356V199.296H174.487V196.356H176.573V204H174.487V200.85H171.575V204H169.489V196.356H171.575ZM181.895 196.202C182.922 196.202 183.706 196.426 184.247 196.874C184.798 197.313 185.073 197.989 185.073 198.904V204H183.617L183.211 202.964H183.155C182.828 203.375 182.483 203.673 182.119 203.86C181.755 204.047 181.256 204.14 180.621 204.14C179.94 204.14 179.375 203.944 178.927 203.552C178.479 203.151 178.255 202.539 178.255 201.718C178.255 200.906 178.54 200.309 179.109 199.926C179.678 199.534 180.532 199.319 181.671 199.282L183.001 199.24V198.904C183.001 198.503 182.894 198.209 182.679 198.022C182.474 197.835 182.184 197.742 181.811 197.742C181.438 197.742 181.074 197.798 180.719 197.91C180.364 198.013 180.01 198.143 179.655 198.302L178.969 196.888C179.38 196.673 179.832 196.505 180.327 196.384C180.831 196.263 181.354 196.202 181.895 196.202ZM182.189 200.486C181.517 200.505 181.05 200.626 180.789 200.85C180.528 201.074 180.397 201.368 180.397 201.732C180.397 202.049 180.49 202.278 180.677 202.418C180.864 202.549 181.106 202.614 181.405 202.614C181.853 202.614 182.231 202.483 182.539 202.222C182.847 201.951 183.001 201.573 183.001 201.088V200.458L182.189 200.486ZM194.53 193.066C194.484 193.551 194.348 193.981 194.124 194.354C193.9 194.718 193.55 195.003 193.074 195.208C192.598 195.413 191.959 195.516 191.156 195.516C190.335 195.516 189.691 195.418 189.224 195.222C188.767 195.017 188.44 194.732 188.244 194.368C188.048 194.004 187.932 193.57 187.894 193.066H189.756C189.803 193.579 189.934 193.92 190.148 194.088C190.363 194.256 190.713 194.34 191.198 194.34C191.6 194.34 191.926 194.251 192.178 194.074C192.44 193.887 192.594 193.551 192.64 193.066H194.53ZM189.224 199.38C189.224 199.539 189.215 199.735 189.196 199.968C189.187 200.201 189.173 200.439 189.154 200.682C189.145 200.925 189.131 201.139 189.112 201.326C189.094 201.513 189.08 201.643 189.07 201.718L192.598 196.356H195.104V204H193.088V200.948C193.088 200.696 193.098 200.421 193.116 200.122C193.135 199.814 193.154 199.529 193.172 199.268C193.2 198.997 193.219 198.792 193.228 198.652L189.714 204H187.208V196.356H189.224V199.38ZM204.158 196.356V202.474H205.278V206.744H203.402V204H198.264V206.744H196.388V202.474H197.032C197.368 201.961 197.653 201.377 197.886 200.724C198.12 200.061 198.306 199.357 198.446 198.61C198.586 197.863 198.689 197.112 198.754 196.356H204.158ZM200.504 197.924C200.392 198.773 200.238 199.581 200.042 200.346C199.846 201.102 199.571 201.811 199.216 202.474H202.072V197.924H200.504ZM209.731 196.216C210.786 196.216 211.621 196.519 212.237 197.126C212.853 197.723 213.161 198.577 213.161 199.688V200.696H208.233C208.252 201.284 208.425 201.746 208.751 202.082C209.087 202.418 209.549 202.586 210.137 202.586C210.632 202.586 211.08 202.539 211.481 202.446C211.883 202.343 212.298 202.189 212.727 201.984V203.594C212.354 203.781 211.957 203.916 211.537 204C211.127 204.093 210.627 204.14 210.039 204.14C209.274 204.14 208.597 204 208.009 203.72C207.421 203.431 206.959 202.997 206.623 202.418C206.287 201.839 206.119 201.111 206.119 200.234C206.119 199.338 206.269 198.596 206.567 198.008C206.875 197.411 207.3 196.963 207.841 196.664C208.383 196.365 209.013 196.216 209.731 196.216ZM209.745 197.7C209.344 197.7 209.008 197.831 208.737 198.092C208.476 198.353 208.322 198.759 208.275 199.31H211.201C211.192 198.843 211.071 198.461 210.837 198.162C210.604 197.854 210.24 197.7 209.745 197.7ZM216.939 196.356V199.296H219.851V196.356H221.937V204H219.851V200.85H216.939V204H214.853V196.356H216.939ZM227.258 196.202C228.285 196.202 229.069 196.426 229.61 196.874C230.161 197.313 230.436 197.989 230.436 198.904V204H228.98L228.574 202.964H228.518C228.192 203.375 227.846 203.673 227.482 203.86C227.118 204.047 226.619 204.14 225.984 204.14C225.303 204.14 224.738 203.944 224.29 203.552C223.842 203.151 223.618 202.539 223.618 201.718C223.618 200.906 223.903 200.309 224.472 199.926C225.042 199.534 225.896 199.319 227.034 199.282L228.364 199.24V198.904C228.364 198.503 228.257 198.209 228.042 198.022C227.837 197.835 227.548 197.742 227.174 197.742C226.801 197.742 226.437 197.798 226.082 197.91C225.728 198.013 225.373 198.143 225.018 198.302L224.332 196.888C224.743 196.673 225.196 196.505 225.69 196.384C226.194 196.263 226.717 196.202 227.258 196.202ZM227.552 200.486C226.88 200.505 226.414 200.626 226.152 200.85C225.891 201.074 225.76 201.368 225.76 201.732C225.76 202.049 225.854 202.278 226.04 202.418C226.227 202.549 226.47 202.614 226.768 202.614C227.216 202.614 227.594 202.483 227.902 202.222C228.21 201.951 228.364 201.573 228.364 201.088V200.458L227.552 200.486Z" fill="#212121"/>
</svg>
