<svg width="168" height="168" viewBox="0 0 168 168" fill="none" xmlns="http://www.w3.org/2000/svg">
<g clip-path="url(#clip0)">
<path d="M149.008 59.2271L167.152 32.4574C168.018 31.181 168.234 29.5729 167.738 28.1127C167.242 26.6526 166.091 25.5094 164.627 25.0241L105.236 5.33662C103.132 4.63936 100.822 5.43407 99.5925 7.27846L84 30.6668L68.4079 7.27813C67.1784 5.43374 64.8681 4.63903 62.7638 5.33629L3.3733 25.0238C1.90954 25.5091 0.75782 26.6522 0.261695 28.1124C-0.234429 29.5725 -0.0175384 31.1807 0.847726 32.4574L18.9917 59.2271L0.848054 85.9968C-0.0172103 87.2735 -0.234101 88.8817 0.262024 90.3418C0.758148 91.802 1.90986 92.9452 3.37363 93.4305L20.0158 98.9469V138.305C20.0158 140.424 21.3713 142.304 23.381 142.974L82.4224 162.655C83.4117 162.989 84.5129 163.012 85.5724 162.657L144.619 142.974C146.628 142.304 147.984 140.423 147.984 138.305V98.9469L164.627 93.4301C166.091 92.9448 167.242 91.8017 167.738 90.3415C168.234 88.8813 168.018 87.2732 167.152 85.9965L149.008 59.2271ZM105.701 15.8615L155.353 32.3209L141.081 53.3786L91.6696 36.9084L105.701 15.8615ZM12.6468 32.3206L62.2989 15.8612L76.3301 36.9081L26.9195 53.3783L12.6468 32.3206ZM12.6471 86.1333L26.9195 65.0756L76.3304 81.5458L62.2992 102.593C53.9248 99.8167 18.319 88.0138 12.6471 86.1333ZM79.0782 151.164L29.8595 134.757V102.21L62.7638 113.118C64.8546 113.811 67.1705 113.032 68.4079 111.176L79.0782 95.1705V151.164ZM84 73.7263L40.5019 59.2268L84 44.7276L127.498 59.2268L84 73.7263ZM138.141 134.757L88.9219 151.164V95.1702L99.5925 111.176C100.831 113.033 103.147 113.81 105.236 113.118L138.141 102.21V134.757ZM105.701 102.593L91.6696 81.5461L141.081 65.0759L155.353 86.134C154.507 86.4142 107.165 102.104 105.701 102.593Z" fill="#212121"/>
</g>
<defs>
<clipPath id="clip0">
<rect width="168" height="168" fill="white"/>
</clipPath>
</defs>
</svg>
