<svg width="20" height="20" viewBox="0 0 20 20" fill="none" xmlns="http://www.w3.org/2000/svg">
<path d="M17.1351 19.9998H2.86486C2.38919 19.9998 2 19.6177 2 19.1506V5.13783C2 4.67074 2.38919 4.28857 2.86486 4.28857H17.1351C17.6108 4.28857 18 4.67074 18 5.13783V19.1506C17.9568 19.6177 17.6108 19.9998 17.1351 19.9998ZM3.72973 18.3438H16.3135V5.98709H3.72973V18.3438Z" fill="black"/>
<path d="M13.4596 9.29936C12.9839 9.29936 12.5947 8.9172 12.5947 8.45011C12.5947 5.85987 10.9947 1.65605 10.0001 1.65605C9.00551 1.65605 7.40551 5.81741 7.40551 8.45011C7.40551 8.9172 7.01632 9.29936 6.54065 9.29936C6.06497 9.29936 5.67578 8.9172 5.67578 8.45011C5.67578 6.2845 7.14605 0 10.0001 0C12.8542 0 14.3244 6.2845 14.3244 8.45011C14.2812 8.95966 13.9352 9.29936 13.4596 9.29936Z" fill="black"/>
</svg>
