<svg width="30" height="30" viewBox="0 0 30 30" fill="none" xmlns="http://www.w3.org/2000/svg">
<g clip-path="url(#clip0)">
<path d="M19.9993 9.99977C19.7649 9.76543 19.447 9.63379 19.1156 9.63379C18.7841 9.63379 18.4662 9.76543 18.2318 9.99977L14.9993 13.2323L11.7668 9.99977C11.5311 9.77207 11.2153 9.64608 10.8876 9.64893C10.5598 9.65178 10.2463 9.78324 10.0146 10.015C9.78279 10.2468 9.65133 10.5603 9.64848 10.888C9.64564 11.2158 9.77163 11.5315 9.99933 11.7673L13.2318 14.9998L9.99933 18.2323C9.77163 18.468 9.64564 18.7838 9.64848 19.1115C9.65133 19.4393 9.78279 19.7528 10.0146 19.9845C10.2463 20.2163 10.5598 20.3478 10.8876 20.3506C11.2153 20.3535 11.5311 20.2275 11.7668 19.9998L14.9993 16.7673L18.2318 19.9998C18.4676 20.2275 18.7833 20.3535 19.1111 20.3506C19.4388 20.3478 19.7523 20.2163 19.9841 19.9845C20.2159 19.7528 20.3473 19.4393 20.3502 19.1115C20.353 18.7838 20.227 18.468 19.9993 18.2323L16.7668 14.9998L19.9993 11.7673C20.2337 11.5329 20.3653 11.215 20.3653 10.8835C20.3653 10.5521 20.2337 10.2342 19.9993 9.99977Z" fill="white"/>
<path d="M15 0C12.0333 0 9.13319 0.879735 6.66645 2.52796C4.19972 4.17618 2.27713 6.51886 1.14181 9.25975C0.00649929 12.0006 -0.290551 15.0166 0.288228 17.9264C0.867006 20.8361 2.29562 23.5088 4.3934 25.6066C6.49119 27.7044 9.16394 29.133 12.0737 29.7118C14.9834 30.2906 17.9994 29.9935 20.7403 28.8582C23.4811 27.7229 25.8238 25.8003 27.472 23.3336C29.1203 20.8668 30 17.9667 30 15C29.9957 11.0231 28.414 7.21026 25.6019 4.39815C22.7897 1.58604 18.9769 0.00430135 15 0V0ZM15 27.5C12.5277 27.5 10.111 26.7669 8.05538 25.3934C5.99976 24.0199 4.39761 22.0676 3.45151 19.7835C2.50542 17.4995 2.25788 14.9861 2.74019 12.5614C3.22251 10.1366 4.41302 7.90932 6.16117 6.16117C7.90933 4.41301 10.1366 3.2225 12.5614 2.74018C14.9861 2.25787 17.4995 2.50541 19.7836 3.45151C22.0676 4.3976 24.0199 5.99976 25.3934 8.05537C26.7669 10.111 27.5 12.5277 27.5 15C27.4964 18.3141 26.1782 21.4914 23.8348 23.8348C21.4914 26.1782 18.3141 27.4964 15 27.5Z" fill="white"/>
</g>
<defs>
<clipPath id="clip0">
<rect width="30" height="30" fill="white"/>
</clipPath>
</defs>
</svg>
