<svg width="20" height="20" viewBox="0 0 20 20" fill="none" xmlns="http://www.w3.org/2000/svg">
<path d="M8.65017 17.3483C8.65017 18.4329 7.76274 19.3203 6.6781 19.3203H1.97597C0.891334 19.3203 0.00390625 18.4329 0.00390625 17.3483V12.6523C0.00390625 11.5676 0.891334 10.6802 1.97597 10.6802H6.67194C7.75658 10.6802 8.644 11.5676 8.644 12.6523V17.3483H8.65017ZM7.14031 12.6523C7.14031 12.3996 6.93077 12.1901 6.6781 12.1901H1.97597C1.7233 12.1901 1.51377 12.3996 1.51377 12.6523V17.3483C1.51377 17.6009 1.7233 17.8105 1.97597 17.8105H6.67194C6.92461 17.8105 7.13414 17.6009 7.13414 17.3483V12.6523H7.14031Z" fill="#212121"/>
<path d="M6.6781 8.64648H1.97597C0.891334 8.64648 0.00390625 7.75906 0.00390625 6.67442V1.97845C0.00390625 0.89381 0.891334 0.00638199 1.97597 0.00638199H6.67194C7.75658 0.00638199 8.644 0.89381 8.644 1.97845V6.67442C8.65017 7.75906 7.76274 8.64648 6.6781 8.64648ZM7.14031 1.97228C7.14031 1.71961 6.93077 1.51008 6.6781 1.51008H1.97597C1.7233 1.51008 1.51377 1.71961 1.51377 1.97228V6.66826C1.51377 6.92093 1.7233 7.13046 1.97597 7.13046H6.67194C6.92461 7.13046 7.13414 6.92093 7.13414 6.66826V1.97228H7.14031Z" fill="#212121"/>
<path d="M10.6846 12.6523C10.6846 11.5676 11.572 10.6802 12.6566 10.6802H17.3526C18.4372 10.6802 19.3247 11.5676 19.3247 12.6523V17.3483C19.3247 18.4329 18.4372 19.3203 17.3526 19.3203H12.6566C11.572 19.3203 10.6846 18.4329 10.6846 17.3483V12.6523ZM12.1944 17.3483C12.1944 17.6009 12.404 17.8105 12.6566 17.8105H17.3526C17.6053 17.8105 17.8148 17.6009 17.8148 17.3483V12.6523C17.8148 12.3996 17.6053 12.1901 17.3526 12.1901H12.6566C12.404 12.1901 12.1944 12.3996 12.1944 12.6523V17.3483Z" fill="#212121"/>
<path d="M10.6846 1.9721C10.6846 0.88747 11.572 4.19617e-05 12.6566 4.19617e-05H17.3526C18.4372 4.19617e-05 19.3247 0.88747 19.3247 1.9721V6.66807C19.3247 7.75271 18.4372 8.64014 17.3526 8.64014H12.6566C11.572 8.64014 10.6846 7.75271 10.6846 6.66807V1.9721ZM12.1944 6.67424C12.1944 6.92691 12.404 7.13644 12.6566 7.13644H17.3526C17.6053 7.13644 17.8148 6.92691 17.8148 6.67424V1.97826C17.8148 1.72559 17.6053 1.51606 17.3526 1.51606H12.6566C12.404 1.51606 12.1944 1.72559 12.1944 1.97826V6.67424Z" fill="#212121"/>
</svg>
