<svg width="22" height="25" viewBox="0 0 22 25" fill="none" xmlns="http://www.w3.org/2000/svg">
<path d="M7.85725 0C7.38582 0 7.07153 0.3125 7.07153 0.78125C7.07153 1.25 7.38582 1.5625 7.85725 1.5625H14.143C14.6144 1.5625 14.9287 1.25 14.9287 0.78125C14.9287 0.3125 14.6144 0 14.143 0H7.85725Z" fill="#212121"/>
<path d="M7.07136 10.1562C7.54279 10.1562 7.85707 10.4687 7.85707 10.9375V18.75C7.85707 19.2188 7.54279 19.5312 7.07136 19.5312C6.59993 19.5312 6.28564 19.2188 6.28564 18.75V10.9375C6.28564 10.4687 6.59993 10.1562 7.07136 10.1562Z" fill="#212121"/>
<path d="M15.7143 10.9375C15.7143 10.4687 15.4 10.1562 14.9285 10.1562C14.4571 10.1562 14.1428 10.4687 14.1428 10.9375V18.75C14.1428 19.2188 14.4571 19.5312 14.9285 19.5312C15.4 19.5312 15.7143 19.2188 15.7143 18.75V10.9375Z" fill="#212121"/>
<path d="M11.0001 10.1562C11.4715 10.1562 11.7858 10.4687 11.7858 10.9375V18.75C11.7858 19.2188 11.4715 19.5312 11.0001 19.5312C10.5286 19.5312 10.2144 19.2188 10.2144 18.75V10.9375C10.2144 10.4687 10.5286 10.1562 11.0001 10.1562Z" fill="#212121"/>
<path fill-rule="evenodd" clip-rule="evenodd" d="M22 5.46875C22 4.14062 20.9786 3.125 19.6429 3.125H2.35714C1.02143 3.125 0 4.14062 0 5.46875C0 6.79688 1.02143 7.8125 2.35714 7.8125V21.0938C2.35714 23.2812 4.08571 25 6.28571 25H15.7143C17.9143 25 19.6429 23.2812 19.6429 21.0938V7.8125C20.9786 7.8125 22 6.79688 22 5.46875ZM18.0714 7.8125H3.92857V21.0938C3.92857 22.4219 4.95 23.4375 6.28571 23.4375H15.7143C17.05 23.4375 18.0714 22.4219 18.0714 21.0938V7.8125ZM19.6429 6.25C20.1143 6.25 20.4286 5.9375 20.4286 5.46875C20.4286 5 20.1143 4.6875 19.6429 4.6875H2.35714C1.88571 4.6875 1.57143 5 1.57143 5.46875C1.57143 5.9375 1.88571 6.25 2.35714 6.25H19.6429Z" fill="#212121"/>
</svg>
