<svg width="56" height="56" viewBox="0 0 56 56" fill="none" xmlns="http://www.w3.org/2000/svg">
<path d="M15.0078 14.4102V28.4648C15.0078 28.758 15.1642 29.0287 15.418 29.1752L27.5897 36.2026C27.7165 36.2759 27.8582 36.3125 27.9998 36.3125C28.1415 36.3125 28.2831 36.2759 28.41 36.2026L40.5817 29.1752C40.8354 29.0287 40.9918 28.758 40.9918 28.4648V14.4102C40.9918 14.117 40.8354 13.8463 40.5817 13.6998L28.41 6.67242C28.1562 6.52586 27.8434 6.52586 27.5897 6.67242L15.418 13.6998C15.1642 13.8463 15.0078 14.117 15.0078 14.4102ZM16.6484 15.8309L27.1795 21.9111V34.0714L16.6484 27.9912V15.8309ZM27.9998 20.4903L17.4687 14.4102L21.914 11.8437L32.445 17.9238L27.9998 20.4903ZM28.8201 34.0714V21.9111L39.3512 15.8309V27.9912L28.8201 34.0714ZM27.9998 8.33L38.5309 14.4102L34.0857 16.9766L23.5546 10.8965L27.9998 8.33Z" fill="#212121"/>
<path d="M37.3006 22.0711C37.0468 21.9245 36.734 21.9245 36.4803 22.0711L30.8711 25.3096C30.6173 25.4561 30.4609 25.7269 30.4609 26.02V29.8088C30.4609 30.102 30.6173 30.3727 30.8711 30.5192C30.998 30.5925 31.1396 30.6291 31.2813 30.6291C31.4229 30.6291 31.5645 30.5925 31.6914 30.5192L37.3006 27.2807C37.5543 27.1342 37.7108 26.8635 37.7108 26.5704V22.7815C37.7108 22.4885 37.5543 22.2177 37.3006 22.0711ZM36.0701 26.0969L32.1016 28.3881V26.4936L36.0701 24.2023V26.0969Z" fill="#212121"/>
<path d="M28 0C16.1793 0 6.5625 9.6168 6.5625 21.4375C6.5625 26.0273 7.99345 30.4054 10.7006 34.0983L10.7056 34.0946C10.7562 34.1744 26.0164 54.9957 26.0164 54.9957C26.4817 55.6246 27.2231 56 28 56C28.779 56 29.5202 55.6237 29.979 54.9906C30.036 54.9216 45.3013 34.0982 45.3013 34.0982C48.0072 30.4043 49.4375 26.0263 49.4375 21.4375C49.4375 9.6168 39.8207 0 28 0ZM43.9779 33.1284C43.8268 33.3345 28.8921 53.7098 28.6659 54.0154C28.6641 54.0177 28.6624 54.02 28.6606 54.0224C28.5033 54.2365 28.2626 54.3594 28 54.3594C27.7372 54.3594 27.4949 54.2357 27.3375 54.0229C27.1862 53.8165 12.2304 33.4126 12.0285 33.1347C12.027 33.1325 12.0255 33.1303 12.0239 33.1283C9.52427 29.7187 8.20312 25.676 8.20312 21.4375C8.20312 10.5214 17.0839 1.64062 28 1.64062C38.9161 1.64062 47.7969 10.5214 47.7969 21.4375C47.7969 25.6752 46.4763 29.718 43.9779 33.1284Z" fill="#212121"/>
<path d="M28 3.28125C23.7845 3.28125 19.6768 4.7588 16.4337 7.44187C16.0847 7.73073 16.0358 8.24775 16.3245 8.59687C16.6134 8.946 17.1304 8.995 17.4795 8.70603C20.4291 6.26577 24.1653 4.92188 28 4.92188C37.1068 4.92188 44.5156 12.3307 44.5156 21.4375C44.5156 30.5443 37.1068 37.9531 28 37.9531C18.8932 37.9531 11.4844 30.5443 11.4844 21.4375C11.4844 17.6028 12.8283 13.8666 15.2684 10.9169C15.5572 10.5679 15.5083 10.0508 15.1593 9.76194C14.8102 9.47319 14.2931 9.52197 14.0043 9.87109C11.3213 13.1143 9.84375 17.222 9.84375 21.4375C9.84375 31.4489 17.9886 39.5938 28 39.5938C38.0114 39.5938 46.1562 31.4489 46.1562 21.4375C46.1562 11.4261 38.0114 3.28125 28 3.28125Z" fill="#212121"/>
</svg>
