<svg width="56" height="56" viewBox="0 0 56 56" fill="none" xmlns="http://www.w3.org/2000/svg">
<path d="M19.9788 13.6172C16.4785 13.6172 13.6309 16.4649 13.6309 19.9651C13.6309 23.4653 16.4785 26.313 19.9788 26.313C23.479 26.313 26.3266 23.4653 26.3266 19.9651C26.3266 16.4649 23.479 13.6172 19.9788 13.6172ZM19.9788 24.6724C17.3832 24.6724 15.2715 22.5607 15.2715 19.9651C15.2715 17.3695 17.3832 15.2578 19.9788 15.2578C22.5742 15.2578 24.6859 17.3695 24.6859 19.9651C24.6859 22.5607 22.5742 24.6724 19.9788 24.6724Z" fill="#212121"/>
<path d="M19.9796 16.6943C18.1763 16.6943 16.709 18.1616 16.709 19.965C16.709 21.7685 18.1763 23.2357 19.9796 23.2357C21.783 23.2357 23.2503 21.7685 23.2503 19.965C23.2503 18.1616 21.783 16.6943 19.9796 16.6943ZM19.9796 21.5951C19.0808 21.5951 18.3496 20.8638 18.3496 19.965C18.3496 19.0661 19.0809 18.335 19.9796 18.335C20.8784 18.335 21.6096 19.0662 21.6096 19.965C21.6096 20.8637 20.8785 21.5951 19.9796 21.5951Z" fill="#212121"/>
<path d="M35.0848 42.3095C35.402 42.3581 35.7265 42.3827 36.049 42.3827C39.5492 42.3827 42.3969 39.535 42.3969 36.0348C42.3969 32.5346 39.5492 29.6869 36.049 29.6869C32.5487 29.6869 29.7012 32.5346 29.7012 36.0348C29.7012 37.5827 30.2666 39.0745 31.2933 40.2357C31.5933 40.5751 32.1118 40.6069 32.4512 40.3068C32.7907 40.0066 32.8225 39.4882 32.5223 39.1488C31.761 38.2879 31.3418 37.182 31.3418 36.0348C31.3418 33.4392 33.4535 31.3275 36.049 31.3275C38.6445 31.3275 40.7562 33.4392 40.7562 36.0348C40.7562 38.6304 38.6445 40.7421 36.049 40.7421C35.8093 40.7421 35.5683 40.7238 35.3328 40.6878C34.8854 40.6189 34.4663 40.9269 34.3978 41.3746C34.3295 41.8225 34.6369 42.2411 35.0848 42.3095Z" fill="#212121"/>
<path d="M39.3186 36.0349C39.3186 34.2314 37.8514 32.7642 36.048 32.7642C34.2446 32.7642 32.7773 34.2314 32.7773 36.0349C32.7773 37.8384 34.2446 39.3055 36.048 39.3055C37.8514 39.3055 39.3186 37.8384 39.3186 36.0349ZM34.4179 36.0349C34.4179 35.1361 35.1491 34.4048 36.0479 34.4048C36.9466 34.4048 37.6779 35.1361 37.6779 36.0349C37.6779 36.9338 36.9466 37.6649 36.0479 37.6649C35.1491 37.6649 34.4179 36.9338 34.4179 36.0349Z" fill="#212121"/>
<path d="M36.1712 16.5072L24.1008 28.5776C23.7804 28.898 23.7804 29.4174 24.1008 29.7376C24.4212 30.058 24.9405 30.0579 25.2609 29.7376L37.3311 17.6673C37.6113 17.3871 38.067 17.3872 38.347 17.6673C38.627 17.9474 38.6271 18.4031 38.347 18.6832L18.6978 38.3324C18.4175 38.6126 17.9619 38.6125 17.6819 38.3324C17.4019 38.0523 17.4018 37.5967 17.6819 37.3166L22.5894 32.409C22.9098 32.0887 22.9098 31.5692 22.5894 31.249C22.2691 30.9286 21.7498 30.9286 21.4293 31.249L16.5217 36.1565C15.6021 37.0763 15.6021 38.5727 16.5218 39.4926C16.9817 39.9524 17.5857 40.1823 18.1898 40.1823C18.7938 40.1823 19.398 39.9524 19.8579 39.4925L39.5073 19.8431C40.427 18.9234 40.427 17.4269 39.5072 16.5071C38.5877 15.5876 37.0911 15.5874 36.1712 16.5072Z" fill="#212121"/>
<path d="M13.0554 8.31928C10.0887 10.5774 7.63219 13.5241 5.95142 16.8409C4.18873 20.3191 3.29492 24.0737 3.29492 28C3.29492 34.6026 5.86611 40.81 10.5349 45.4788C15.2037 50.1476 21.4111 52.7188 28.0137 52.7188C34.6162 52.7188 40.8237 50.1476 45.4925 45.4788C50.1613 40.81 52.7324 34.6026 52.7324 28C52.7324 21.3974 50.1612 15.19 45.4925 10.5212C40.8237 5.85244 34.6162 3.28125 28.0137 3.28125C23.9531 3.28125 19.9264 4.28739 16.3686 6.19084C15.9692 6.40456 15.8186 6.90167 16.0323 7.30111C16.2459 7.70044 16.7431 7.85116 17.1426 7.63744C20.4631 5.86086 24.2222 4.92188 28.0137 4.92188C40.739 4.92188 51.0918 15.2747 51.0918 28C51.0918 40.7253 40.739 51.0781 28.0137 51.0781C15.2883 51.0781 4.93555 40.7253 4.93555 28C4.93555 20.7308 8.25737 14.0332 14.0492 9.62467C14.4097 9.35025 14.4795 8.83564 14.2051 8.47514C13.9308 8.11464 13.4162 8.04475 13.0554 8.31928Z" fill="#212121"/>
<path d="M55.2019 28.4484C54.7504 28.4281 54.3656 28.7777 54.3448 29.2302C53.6978 43.3214 42.1318 54.3594 28.0137 54.3594C13.479 54.3594 1.6543 42.5346 1.6543 28C1.6543 13.4654 13.479 1.64062 28.0137 1.64062C41.701 1.64062 52.9831 11.9027 54.257 25.5112C54.2992 25.9623 54.7003 26.294 55.1503 26.2514C55.6013 26.2092 55.9327 25.8093 55.8906 25.3582C55.2437 18.448 52.057 12.0506 46.9177 7.34453C41.7455 2.60838 35.0318 0 28.0137 0C20.5346 0 13.5032 2.91255 8.21461 8.20094C2.92622 13.4895 0.0136719 20.5209 0.0136719 28C0.0136719 35.4791 2.92622 42.5105 8.21461 47.7991C13.5032 53.0876 20.5346 56 28.0137 56C35.2653 56 42.1423 53.2386 47.3778 48.2246C52.5968 43.2264 55.6531 36.5075 55.9838 29.3055C56.0045 28.8529 55.6545 28.4692 55.2019 28.4484Z" fill="#212121"/>
</svg>
