<svg width="22" height="20" viewBox="0 0 22 20" fill="none" xmlns="http://www.w3.org/2000/svg">
<path d="M20.9796 1.82802H7.97269C7.61392 0.7631 6.61164 0 5.42712 0C4.24261 0 3.24033 0.768795 2.88156 1.82802H0.854217C0.38155 1.82802 0 2.20957 0 2.68224C0 3.15491 0.38155 3.53646 0.854217 3.53646H2.88725C3.24602 4.60138 4.2483 5.36448 5.43282 5.36448C6.61733 5.36448 7.61961 4.59569 7.97838 3.53646H20.991C21.4636 3.53646 21.8452 3.15491 21.8452 2.68224C21.8452 2.20957 21.4522 1.82802 20.9796 1.82802ZM5.42712 3.65605C4.89182 3.65605 4.45332 3.21755 4.45332 2.68224C4.45332 2.14693 4.89182 1.70843 5.42712 1.70843C5.96243 1.70843 6.40093 2.14693 6.40093 2.68224C6.40093 3.21755 5.96243 3.65605 5.42712 3.65605Z" fill="#212121"/>
<path d="M20.9796 9.1459H18.9465C18.5878 8.08097 17.5855 7.31787 16.401 7.31787C15.2164 7.31787 14.2199 8.08097 13.8611 9.1459H0.854217C0.38155 9.1459 0 9.52745 0 10.0001C0 10.4728 0.38155 10.8543 0.854217 10.8543H13.8668C14.2256 11.9193 15.2278 12.6824 16.4124 12.6824C17.5969 12.6824 18.5991 11.9136 18.9579 10.8543H20.991C21.4636 10.8543 21.8452 10.4728 21.8452 10.0001C21.8452 9.52745 21.4522 9.1459 20.9796 9.1459ZM16.4067 10.9739C15.8713 10.9739 15.4329 10.5354 15.4329 10.0001C15.4329 9.4648 15.8713 9.0263 16.4067 9.0263C16.942 9.0263 17.3805 9.4648 17.3805 10.0001C17.3805 10.5354 16.942 10.9739 16.4067 10.9739Z" fill="#212121"/>
<path d="M20.9796 16.4633H11.6287C11.27 15.3984 10.2677 14.6353 9.08317 14.6353C7.89866 14.6353 6.89638 15.404 6.53761 16.4633H0.854217C0.38155 16.4633 0 16.8448 0 17.3175C0 17.7902 0.38155 18.1717 0.854217 18.1717H6.5433C6.90207 19.2366 7.90435 19.9997 9.08887 19.9997C10.2734 19.9997 11.2757 19.2309 11.6344 18.1717H20.9853C21.4579 18.1717 21.8395 17.7902 21.8395 17.3175C21.8395 16.8448 21.4522 16.4633 20.9796 16.4633ZM9.08887 18.297C8.55356 18.297 8.11506 17.8585 8.11506 17.3232C8.11506 16.7879 8.55356 16.3494 9.08887 16.3494C9.62418 16.3494 10.0627 16.7879 10.0627 17.3232C10.0627 17.8585 9.62418 18.297 9.08887 18.297Z" fill="#212121"/>
</svg>
