<svg width="56" height="56" viewBox="0 0 56 56" fill="none" xmlns="http://www.w3.org/2000/svg">
<g clip-path="url(#clip0)">
<path d="M27.9982 5.17285C23.4086 5.17285 19.1091 6.9759 15.8902 10.2515L15.8419 10.3008C15.5261 10.6241 15.532 11.1422 15.8552 11.4582C16.1784 11.7741 16.6966 11.7682 17.0126 11.445L17.0592 11.3973C19.9664 8.4389 23.8512 6.80976 27.9982 6.80976C36.4544 6.80976 43.3341 13.6893 43.3341 22.1457C43.3341 30.602 36.4544 37.4816 27.9982 37.4816C19.542 37.4816 12.6623 30.6019 12.6623 22.1457C12.6623 19.3831 13.4047 16.6753 14.8093 14.315C15.0404 13.9265 14.913 13.4242 14.5245 13.1931C14.1359 12.962 13.6338 13.0895 13.4027 13.4779C11.8475 16.0913 11.0254 19.0886 11.0254 22.1458C11.0254 31.5046 18.6393 39.1186 27.9981 39.1186C37.3569 39.1186 44.9708 31.5046 44.9708 22.1458C44.9708 12.787 37.357 5.17285 27.9982 5.17285Z" fill="#212121"/>
<path d="M48.7295 18.7394C48.2854 18.0783 47.8661 17.4537 47.7085 16.8643C47.5404 16.2353 47.5906 15.4604 47.6438 14.64C47.7233 13.4162 47.8054 12.1506 47.1802 11.0702C46.5454 9.97292 45.3986 9.40975 44.2895 8.86506C43.5603 8.50697 42.8715 8.16867 42.4238 7.721C41.9761 7.27322 41.6378 6.58448 41.2796 5.85517C40.7351 4.74622 40.1719 3.59942 39.0745 2.96461C37.9941 2.33953 36.7287 2.42167 35.5048 2.50097C34.6843 2.55423 33.9095 2.60455 33.2803 2.43633C32.6909 2.27872 32.0663 1.85938 31.4052 1.41531C30.4176 0.751953 29.2979 0 27.9992 0C26.7005 0 25.5808 0.751953 24.593 1.41542C23.9318 1.85948 23.3074 2.27883 22.7179 2.43633C22.0889 2.60455 21.314 2.55423 20.4936 2.50097C19.2697 2.42167 18.0043 2.33953 16.9238 2.96461C15.8265 3.59942 15.2634 4.74622 14.7187 5.85517C14.3606 6.58448 14.0223 7.27333 13.5745 7.721C13.1268 8.16867 12.4381 8.50697 11.7088 8.86506C10.5997 9.40964 9.45305 9.97292 8.81812 11.0702C8.19294 12.1506 8.27508 13.4162 8.35448 14.6401C8.40775 15.4604 8.45795 16.2353 8.28984 16.8643C8.13223 17.4537 7.71289 18.0783 7.26883 18.7394C6.60547 19.7273 5.85352 20.8469 5.85352 22.1456C5.85352 23.4443 6.60536 24.564 7.26883 25.5519C7.71278 26.213 8.13223 26.8376 8.28973 27.427C8.45784 28.056 8.40764 28.8309 8.35437 29.6513C8.27497 30.8751 8.19283 32.1406 8.81802 33.2211C9.45283 34.3184 10.5996 34.8817 11.7087 35.4262C12.4379 35.7843 13.1267 36.1226 13.5744 36.5703C13.9895 36.9854 14.3106 37.6084 14.6406 38.278L8.69595 49.2144C8.44089 49.6836 8.44822 50.2398 8.71564 50.702C8.98306 51.1643 9.46136 51.4479 9.99522 51.4608L14.5541 51.5712L17.126 55.3369C17.4123 55.756 17.8765 56 18.3796 56C18.4058 56 18.4323 55.9993 18.4588 55.998C18.9921 55.971 19.4627 55.6747 19.7178 55.2055L25.9598 43.7221C26.5881 44.0509 27.2649 44.2913 27.9991 44.2913C28.7332 44.2913 29.4102 44.0509 30.0384 43.7221L36.2804 55.2056C36.5355 55.6748 37.0061 55.9711 37.5395 55.9981C37.566 55.9995 37.5924 56.0001 37.6186 56.0001C38.1218 56.0001 38.586 55.7561 38.8722 55.337L41.4441 51.5713L46.0029 51.4609C46.5368 51.448 47.0152 51.1643 47.2825 50.7021C47.5499 50.2398 47.5572 49.6837 47.3022 49.2145L45.1283 45.2152C44.9124 44.8179 44.4155 44.6708 44.0184 44.887C43.6213 45.1029 43.4744 45.5998 43.6902 45.9969L45.7732 49.8291L41.3448 49.9362C40.8568 49.9481 40.4011 50.1958 40.126 50.5988L37.6276 54.2567L31.4317 42.858C32.0831 42.4207 32.6988 42.0103 33.2803 41.8549C33.9093 41.6868 34.6842 41.737 35.5046 41.7902C36.7287 41.8696 37.994 41.9518 39.0744 41.3266C39.6463 40.9957 40.0725 40.5252 40.4272 39.994L41.8894 42.6841C42.1052 43.0813 42.6019 43.2282 42.9993 43.0124C43.3965 42.7965 43.5434 42.2996 43.3276 41.9024L41.3574 38.2779C41.6874 37.6083 42.0085 36.9854 42.4236 36.5703C42.8713 36.1226 43.56 35.7843 44.2893 35.4262C45.3984 34.8817 46.5451 34.3184 47.18 33.2211C47.8052 32.1407 47.723 30.8751 47.6436 29.6512C47.5904 28.8309 47.5402 28.056 47.7083 27.4269C47.8659 26.8375 48.2852 26.213 48.7292 25.5519C49.3925 24.564 50.1445 23.4443 50.1445 22.1456C50.1448 20.8469 49.3929 19.7272 48.7295 18.7394ZM18.3706 54.2567L15.8724 50.599C15.5971 50.1959 15.1414 49.9482 14.6534 49.9364L10.2251 49.8292L15.571 39.9942C15.9257 40.5253 16.3519 40.9958 16.9238 41.3267C18.0043 41.9518 19.27 41.8697 20.4936 41.7903C21.314 41.7371 22.0889 41.6869 22.7179 41.855C23.2995 42.0104 23.9153 42.4209 24.5665 42.8582L18.3706 54.2567ZM47.3705 24.6392C46.8713 25.3827 46.3551 26.1513 46.1271 27.0042C45.8895 27.8932 45.9509 28.8409 46.0104 29.7572C46.0769 30.7825 46.1397 31.7509 45.7634 32.4014C45.3775 33.0682 44.4985 33.4999 43.568 33.957C42.751 34.3582 41.9061 34.773 41.2664 35.4129C40.6266 36.0526 40.2117 36.8975 39.8104 37.7146C39.3534 38.6451 38.9217 39.524 38.255 39.9098C37.6044 40.2862 36.6362 40.2233 35.6108 40.1569C34.6944 40.0974 33.7469 40.0361 32.8579 40.2736C32.0051 40.5017 31.2364 41.0178 30.493 41.5171C29.622 42.102 28.7994 42.6545 27.9992 42.6545C27.1991 42.6545 26.3765 42.102 25.5056 41.5171C24.7622 41.0179 23.9936 40.5017 23.1406 40.2736C22.6525 40.1431 22.147 40.1029 21.6385 40.1029C21.2207 40.1029 20.8009 40.1301 20.3876 40.157C19.3622 40.2234 18.3939 40.2864 17.7435 39.91C17.0766 39.5241 16.6449 38.6451 16.1879 37.7146C15.7867 36.8975 15.3718 36.0527 14.7319 35.4129C14.0922 34.7732 13.2474 34.3582 12.4303 33.957C11.4998 33.5 10.6208 33.0683 10.235 32.4014C9.85861 31.7509 9.92139 30.7825 9.98789 29.7573C10.0474 28.841 10.1089 27.8934 9.87119 27.0044C9.64325 26.1515 9.127 25.3827 8.6277 24.6393C8.04287 23.7684 7.49042 22.9458 7.49042 22.1457C7.49042 21.3456 8.04287 20.523 8.6277 19.6521C9.127 18.9086 9.64314 18.14 9.87119 17.287C10.1089 16.398 10.0474 15.4504 9.98789 14.5341C9.92139 13.5088 9.85861 12.5404 10.235 11.8899C10.6208 11.2231 11.4998 10.7914 12.4303 10.3343C13.2474 9.93311 14.0922 9.51814 14.7319 8.87841C15.3717 8.23867 15.7866 7.39375 16.1879 6.57672C16.6449 5.64627 17.0766 4.76733 17.7435 4.38145C18.3939 4.0052 19.3622 4.06798 20.3876 4.13438C21.3039 4.19387 22.2515 4.25534 23.1406 4.01767C23.9934 3.78963 24.762 3.27348 25.5055 2.77419C26.3764 2.18925 27.199 1.6368 27.9992 1.6368C28.7993 1.6368 29.6219 2.18925 30.4929 2.77408C31.2363 3.27338 32.005 3.78962 32.8579 4.01756C33.7469 4.25523 34.6946 4.19377 35.611 4.13427C36.6362 4.06787 37.6046 4.00498 38.255 4.38134C38.9218 4.76722 39.3535 5.64616 39.8105 6.57661C40.2117 7.39364 40.6267 8.23845 41.2665 8.8783C41.9062 9.51803 42.7512 9.933 43.5681 10.3342C44.4987 10.7912 45.3775 11.2229 45.7634 11.8897C46.1397 12.5402 46.0769 13.5086 46.0104 14.5338C45.9509 15.4501 45.8895 16.3977 46.1271 17.2867C46.3551 18.1396 46.8713 18.9084 47.3706 19.6517C47.9555 20.5227 48.5079 21.3453 48.5079 22.1454C48.5079 22.9457 47.9555 23.7683 47.3705 24.6392Z" fill="#212121"/>
<path d="M39.2386 21.3788C39.7916 20.8397 39.9868 20.0486 39.7482 19.3141C39.5095 18.5797 38.8865 18.0544 38.1223 17.9433L32.5717 17.1368C32.4488 17.119 32.3426 17.0418 32.2877 16.9304L29.8054 11.9008C29.4636 11.2082 28.7715 10.7781 27.9993 10.7781C27.2271 10.7781 26.535 11.2082 26.1932 11.9008L23.7109 16.9304C23.656 17.0418 23.5498 17.119 23.4269 17.1368L17.8765 17.9433C17.1122 18.0544 16.4891 18.5796 16.2505 19.3141C16.0118 20.0486 16.2071 20.8397 16.7602 21.3788L20.7765 25.2938C20.8656 25.3805 20.906 25.5053 20.885 25.6277L19.9369 31.1558C19.8063 31.9171 20.1134 32.6719 20.7381 33.1258C21.0912 33.3823 21.5042 33.5125 21.92 33.5125C22.2401 33.5125 22.5619 33.4353 22.8592 33.279L27.8237 30.669C27.9337 30.6113 28.0649 30.6113 28.1748 30.669L33.1393 33.279C33.8228 33.6383 34.6355 33.5796 35.2604 33.1258C35.8853 32.6719 36.1923 31.917 36.0617 31.1558L35.1135 25.6277C35.0925 25.5053 35.1331 25.3805 35.2219 25.2939L39.2386 21.3788ZM33.5003 25.9044L34.4485 31.4326C34.4843 31.6411 34.3554 31.76 34.2984 31.8015C34.2414 31.8429 34.0886 31.9286 33.9012 31.8301L28.9366 29.2201C28.3496 28.9116 27.649 28.9117 27.0621 29.2201L22.0976 31.8303C21.9104 31.9287 21.7574 31.8429 21.7003 31.8015C21.6433 31.76 21.5145 31.6411 21.5502 31.4326L22.4984 25.9045C22.6105 25.2511 22.3941 24.5847 21.9192 24.1217L17.9028 20.2067C17.7512 20.059 17.7856 19.887 17.8073 19.8201C17.8291 19.7531 17.9024 19.5938 18.1118 19.5634L23.6624 18.7569C24.3185 18.6615 24.8854 18.2497 25.1789 17.6551L27.6611 12.6255C27.7548 12.4358 27.9289 12.4153 27.9994 12.4153C28.07 12.4153 28.244 12.4358 28.3377 12.6255L30.82 17.6551C31.1134 18.2497 31.6803 18.6616 32.3365 18.7569L37.887 19.5634C38.0965 19.5938 38.1697 19.7531 38.1915 19.8201C38.2133 19.8872 38.2476 20.0591 38.0962 20.2067L34.0796 24.1218C33.6047 24.5847 33.3882 25.2511 33.5003 25.9044Z" fill="#212121"/>
</g>
<defs>
<clipPath id="clip0">
<rect width="56" height="56" fill="white"/>
</clipPath>
</defs>
</svg>
