<svg width="330" height="323" viewBox="0 0 330 323" fill="none" xmlns="http://www.w3.org/2000/svg">
<path d="M121.717 94.9867C130.952 77.748 119.973 2.69664 152.296 1.01482C175.999 -0.246553 188.724 79.4299 224.022 88.8901C274.303 102.24 306.626 72.5975 325.302 93.0947C347.671 117.796 259.732 166.78 273.995 209.771C288.156 252.658 323.865 305.215 289.079 318.039C253.062 331.283 222.175 246.246 169.535 284.612C93.2932 340.113 89.5991 334.857 91.8566 264.431C94.0115 195.055 -7.37041 196.001 1.55694 145.231C8.73987 104.132 97.9108 139.66 121.717 94.9867Z" stroke="#1E1E1E" stroke-width="0.2507" stroke-miterlimit="10"/>
<path d="M152.706 3.85282C176 2.59145 188.518 81.0065 223.202 90.2565C272.661 103.396 304.471 74.1741 322.737 94.356C344.696 118.637 258.295 166.78 272.251 209.035C286.206 251.291 321.3 302.797 287.13 315.516C251.728 328.655 221.252 244.984 169.535 282.72C94.6273 337.275 90.9332 332.124 93.0881 263.064C95.243 194.845 -4.18928 195.686 4.43023 145.757C11.4079 105.393 98.937 140.186 122.538 96.3532C131.773 79.4298 120.896 5.63976 152.706 3.85282Z" stroke="#1E1E1E" stroke-width="0.2483" stroke-miterlimit="10"/>
<path d="M153.116 6.69108C175.999 5.42971 188.415 82.5834 222.483 91.6232C271.019 104.552 302.316 75.751 320.376 95.6175C342.027 119.584 257.064 166.885 270.814 208.405C284.564 249.925 319.042 300.59 285.487 312.993C250.702 325.922 220.738 243.723 169.945 280.828C96.3712 334.437 92.6771 329.496 94.832 261.593C96.9869 194.53 -0.700963 195.266 7.71332 146.282C14.4858 106.549 100.476 140.711 123.564 97.7198C132.594 81.0067 121.819 8.3729 153.116 6.69108Z" stroke="#1E1E1E" stroke-width="0.2459" stroke-miterlimit="10"/>
<path d="M153.527 9.529C176.102 8.26763 188.211 84.0548 221.765 92.9895C269.48 105.708 300.264 77.3275 317.914 96.9839C339.155 120.529 255.73 166.99 269.173 207.774C282.718 248.558 316.58 298.277 283.641 310.576C249.573 323.294 220.021 242.567 170.048 279.041C97.8084 331.703 94.217 326.973 96.2692 260.226C98.3215 194.425 2.58333 195.055 10.7924 146.913C17.257 107.916 101.708 141.447 124.488 99.0861C133.313 82.5832 122.743 11.2108 153.527 9.529Z" stroke="#1E1E1E" stroke-width="0.2435" stroke-miterlimit="10"/>
<path d="M153.938 12.3671C176.103 11.1058 188.006 85.6316 220.945 94.3561C267.736 106.76 298.007 79.0094 315.452 98.2453C336.282 121.37 254.397 167.095 267.634 207.143C280.871 247.297 314.22 296.07 281.897 308.158C248.445 320.667 219.303 241.411 170.356 277.149C99.4506 328.865 95.8592 324.24 97.8088 258.754C99.7585 194.109 5.96994 194.74 13.8712 147.439C20.2332 109.072 102.837 141.973 125.412 100.453C134.031 84.16 123.667 14.049 153.938 12.3671Z" stroke="#1E1E1E" stroke-width="0.241" stroke-miterlimit="10"/>
<path d="M154.245 15.1001C175.999 13.8387 187.697 87.1032 220.123 95.6174C266.093 107.811 295.851 80.481 312.885 99.4015C333.305 122.106 252.959 166.99 265.888 206.302C278.92 245.72 311.654 293.652 279.946 305.425C247.11 317.723 218.481 239.939 170.355 275.047C100.783 325.817 97.192 321.402 99.1416 257.178C100.989 193.794 9.14981 194.214 16.7432 147.754C22.9 110.123 103.862 142.288 126.129 101.504C134.851 85.7367 124.59 16.887 154.245 15.1001Z" stroke="#1E1E1E" stroke-width="0.2386" stroke-miterlimit="10"/>
<path d="M154.656 17.9381C176.102 16.6768 187.595 88.6799 219.405 96.9839C264.452 108.967 293.697 82.0577 310.423 100.663C330.535 122.947 251.523 166.99 264.349 205.672C277.176 244.354 309.294 291.34 278.202 303.007C245.982 315.095 217.763 238.783 170.561 273.26C102.323 323.084 98.8342 318.774 100.579 255.811C102.426 193.584 12.4338 194.004 19.822 148.385C25.7735 111.384 105.094 142.919 127.053 102.975C135.57 87.3134 125.514 19.62 154.656 17.9381Z" stroke="#1E1E1E" stroke-width="0.2362" stroke-miterlimit="10"/>
<path d="M155.067 20.7762C176.103 19.5148 187.391 90.1514 218.585 98.3503C262.811 110.018 291.543 83.6344 307.961 101.924C327.663 123.788 250.19 167.095 262.709 204.936C275.227 242.987 306.832 289.027 276.356 300.485C244.751 312.362 217.046 237.521 170.767 271.368C103.863 320.246 100.374 316.147 102.119 254.34C103.863 193.373 15.8211 193.584 22.9014 148.91C28.6478 112.646 106.326 143.444 127.875 104.237C136.392 88.8901 126.336 22.458 155.067 20.7762Z" stroke="#1E1E1E" stroke-width="0.2338" stroke-miterlimit="10"/>
<path d="M155.477 23.6143C176.102 22.3529 187.185 91.7282 217.866 99.7168C261.169 111.174 289.388 85.2111 305.498 103.186C324.789 124.629 248.855 167.095 261.169 204.305C273.482 241.621 304.472 286.715 274.611 298.067C243.622 309.84 216.327 236.365 170.972 269.581C105.402 317.513 101.913 313.519 103.658 252.973C105.299 193.163 19.2068 193.373 25.9793 149.541C31.5204 113.907 107.557 144.18 128.798 105.708C137.109 90.4668 127.259 25.2961 155.477 23.6143Z" stroke="#1E1E1E" stroke-width="0.2314" stroke-miterlimit="10"/>
<path d="M155.886 26.4524C176.204 25.191 186.978 93.1998 217.147 101.083C259.526 112.331 287.334 86.7878 303.136 104.447C322.017 125.47 247.623 167.095 259.628 203.569C271.737 240.149 302.11 284.402 272.866 295.439C242.595 307.002 215.71 234.999 171.278 267.584C107.042 314.57 103.554 310.786 105.195 251.501C106.735 192.953 22.4892 192.953 29.0564 150.066C34.3923 115.169 108.787 144.706 129.72 107.075C137.929 92.0435 128.181 28.1342 155.886 26.4524Z" stroke="#1E1E1E" stroke-width="0.229" stroke-miterlimit="10"/>
<path d="M156.195 29.2905C176.102 28.0291 186.774 94.7765 216.224 102.45C257.782 113.487 284.975 88.4697 300.469 105.708C319.042 126.311 246.084 167.2 257.885 202.834C269.685 238.783 299.546 281.985 270.814 292.916C241.159 304.269 214.787 233.737 171.177 265.692C108.275 311.732 104.889 308.158 106.428 250.03C107.967 192.638 25.5685 192.638 31.9305 150.487C37.0611 116.22 109.814 145.126 130.439 108.231C138.648 93.6202 129.105 30.8672 156.195 29.2905Z" stroke="#1E1E1E" stroke-width="0.2265" stroke-miterlimit="10"/>
<path d="M156.606 32.0235C176.102 30.7621 186.569 96.143 215.506 103.711C256.243 114.433 282.923 89.9413 298.007 106.865C316.169 127.047 244.751 167.095 256.243 202.098C267.839 237.311 297.083 279.672 268.967 290.394C239.928 301.536 213.967 232.476 171.382 263.695C109.814 308.789 106.428 305.32 107.967 248.453C109.404 192.322 28.9548 192.112 35.009 150.907C39.9344 117.376 111.148 145.547 131.363 109.493C139.469 95.197 130.029 33.7053 156.606 32.0235Z" stroke="#1E1E1E" stroke-width="0.2241" stroke-miterlimit="10"/>
<path d="M157.017 34.8615C176.103 33.6001 186.364 97.7197 214.788 105.078C254.602 115.484 280.768 91.518 295.647 108.126C313.399 127.887 243.52 167.095 254.807 201.362C266.197 235.839 294.826 277.36 267.326 287.766C238.902 298.698 213.454 231.109 171.69 261.698C111.456 305.845 108.07 302.587 109.507 246.876C110.841 191.902 32.3416 191.692 38.0879 151.328C42.8081 118.532 112.38 146.072 132.287 110.649C140.291 96.7737 130.953 36.5433 157.017 34.8615Z" stroke="#1E1E1E" stroke-width="0.2217" stroke-miterlimit="10"/>
<path d="M157.427 37.6995C176.205 36.4382 186.261 99.1912 213.967 106.444C252.96 116.64 278.51 93.0946 293.081 109.387C310.423 128.728 242.083 167.2 253.165 200.731C264.247 234.578 292.363 275.047 265.478 285.348C237.67 296.07 212.633 229.953 171.793 259.911C112.79 303.112 109.609 299.959 110.943 245.615C112.277 191.902 35.5221 191.481 41.1659 152.064C45.6808 119.899 113.611 146.808 133.107 112.225C141.009 98.3503 131.876 39.2763 157.427 37.6995Z" stroke="#1E1E1E" stroke-width="0.2193" stroke-miterlimit="10"/>
<path d="M157.836 40.5376C176.204 39.3814 186.055 100.768 213.247 107.916C251.317 117.796 276.457 94.7764 290.72 110.754C307.754 129.674 240.85 167.305 251.625 200.101C262.502 233.212 289.899 272.84 263.733 282.93C236.541 293.442 212.016 228.797 172.099 258.124C114.431 300.379 111.25 297.436 112.481 244.249C113.712 191.692 38.9073 191.271 44.2432 152.589C48.553 121.16 114.841 147.333 134.03 113.487C141.828 99.927 132.798 42.1143 157.836 40.5376Z" stroke="#1E1E1E" stroke-width="0.2169" stroke-miterlimit="10"/>
<path d="M158.248 43.3757C176.205 42.2195 185.851 102.345 212.53 109.282C249.676 118.953 274.304 96.4583 288.259 112.015C304.882 130.515 239.415 167.305 250.087 199.47C260.759 231.845 287.541 270.527 261.99 280.513C235.516 290.814 211.402 227.641 172.306 256.337C115.971 297.646 112.79 294.914 114.022 242.882C115.15 191.586 42.295 190.956 47.323 153.22C51.4276 122.421 116.074 147.964 134.955 114.958C142.548 101.504 133.723 44.9524 158.248 43.3757Z" stroke="#1E1E1E" stroke-width="0.2144" stroke-miterlimit="10"/>
<path d="M158.556 46.1088C176.205 44.9525 185.646 103.711 211.607 110.544C247.932 120.004 272.046 97.93 285.694 113.171C301.906 131.251 237.978 167.305 248.342 198.629C258.809 230.374 284.975 268.11 260.04 277.78C234.182 287.976 210.478 226.064 172.409 254.234C117.408 294.598 114.329 291.97 115.458 241.2C116.484 191.061 45.5786 190.43 50.4014 153.535C54.3007 123.473 117.305 148.385 135.878 116.115C143.369 103.081 134.647 47.7906 158.556 46.1088Z" stroke="#1E1E1E" stroke-width="0.212" stroke-miterlimit="10"/>
<path d="M158.965 48.9468C176.204 47.7905 185.439 105.288 210.888 111.91C246.289 121.055 269.89 99.5066 283.23 114.433C299.135 132.092 236.643 167.305 246.802 197.998C256.961 229.007 282.614 265.797 258.295 275.362C233.052 285.348 209.861 224.908 172.613 252.342C118.946 291.76 115.868 289.342 116.894 239.834C117.92 190.956 48.8612 190.115 53.3762 154.166C57.0703 124.734 118.433 149.015 136.698 117.481C144.086 104.657 135.569 50.5235 158.965 48.9468Z" stroke="#1E1E1E" stroke-width="0.2096" stroke-miterlimit="10"/>
<path d="M159.376 51.7849C176.204 50.6287 185.234 106.76 210.169 113.277C244.75 122.211 267.838 101.083 280.767 115.694C296.262 132.933 235.31 167.305 245.16 197.263C255.114 227.536 280.152 263.485 256.448 272.84C231.821 282.615 209.041 223.646 172.818 250.45C120.485 288.922 117.407 286.61 118.433 238.362C119.357 190.641 52.1449 189.8 56.4546 154.692C59.9435 125.995 119.664 149.541 137.519 118.848C144.907 106.234 136.493 53.3617 159.376 51.7849Z" stroke="#1E1E1E" stroke-width="0.2072" stroke-miterlimit="10"/>
<path d="M159.788 54.623C176.206 53.4667 185.03 108.336 209.452 114.643C243.11 123.368 265.684 102.66 278.408 116.956C293.493 133.774 234.08 167.41 243.725 196.632C253.473 226.274 277.895 261.277 254.807 270.317C230.796 279.882 208.529 222.385 173.127 248.558C122.128 286.084 119.153 283.982 119.974 236.891C120.794 190.43 55.5325 189.379 59.637 155.112C62.9206 127.047 121 150.067 138.547 120.004C145.627 107.811 137.418 56.1997 159.788 54.623Z" stroke="#1E1E1E" stroke-width="0.2048" stroke-miterlimit="10"/>
<path d="M160.197 57.4611C176.308 56.3048 184.927 109.913 208.631 116.01C241.467 124.419 263.529 104.342 275.843 118.217C290.516 134.615 232.642 167.41 241.98 195.896C251.421 224.803 275.33 258.859 252.857 267.794C229.461 277.149 207.707 221.124 173.127 246.666C123.462 283.246 120.486 281.249 121.307 235.419C122.128 190.115 58.713 189.064 62.5096 155.638C65.588 128.308 122.025 150.592 139.264 121.37C146.447 109.387 138.341 59.0378 160.197 57.4611Z" stroke="#1E1E1E" stroke-width="0.2024" stroke-miterlimit="10"/>
<path d="M160.505 60.2992C176.204 59.1429 184.619 111.385 207.809 117.376C239.722 125.575 261.271 105.919 273.379 119.478C287.745 135.456 231.308 167.41 240.44 195.266C249.676 223.436 272.969 256.547 251.112 265.377C228.332 274.521 206.988 219.967 173.434 244.879C125.103 280.513 122.127 278.726 122.948 234.053C123.666 190.01 62.2011 188.748 65.69 156.268C68.5632 129.569 123.461 151.223 140.29 122.737C147.165 110.964 139.264 61.7708 160.505 60.2992Z" stroke="#1E1E1E" stroke-width="0.1999" stroke-miterlimit="10"/>
<path d="M160.915 63.0321C176.204 61.8758 184.413 112.856 207.091 118.637C238.182 126.626 259.218 107.39 270.916 120.635C284.871 136.191 229.973 167.41 238.798 194.425C247.828 221.964 270.506 254.129 249.162 262.749C227.1 271.683 206.167 218.601 173.433 242.882C126.437 277.57 123.563 275.993 124.179 232.581C124.795 189.694 65.2791 188.433 68.5627 156.794C71.2306 130.831 124.487 151.748 141.008 124.103C147.985 112.541 140.084 64.6088 160.915 63.0321Z" stroke="#1E1E1E" stroke-width="0.1975" stroke-miterlimit="10"/>
<path d="M161.325 65.8702C176.307 64.7139 184.208 114.433 206.27 120.004C236.438 127.677 256.961 108.967 268.454 121.896C281.999 137.137 228.64 167.41 237.259 193.794C245.981 220.598 268.146 251.817 247.418 260.226C225.972 268.95 205.449 217.339 173.742 240.885C128.079 274.627 125.206 273.155 125.821 231.004C126.334 189.379 68.6656 187.908 71.744 157.109C74.2067 131.777 125.821 152.169 141.931 125.26C148.704 114.118 141.008 67.4469 161.325 65.8702Z" stroke="#1E1E1E" stroke-width="0.1951" stroke-miterlimit="10"/>
<path d="M161.736 68.7081C176.307 67.5519 184.106 115.904 205.552 121.37C234.899 128.833 254.806 110.649 265.991 123.157C279.126 137.978 227.306 167.41 235.618 193.058C244.135 219.126 265.683 249.504 245.571 257.703C224.741 266.217 204.731 216.078 173.844 238.993C129.516 271.788 126.642 270.527 127.155 229.533C127.668 189.064 71.8468 187.592 74.6174 157.635C76.8749 133.038 126.848 152.694 142.65 126.521C149.525 115.694 141.932 70.2849 161.736 68.7081Z" stroke="#1E1E1E" stroke-width="0.1927" stroke-miterlimit="10"/>
<path d="M162.147 71.5463C176.307 70.3901 183.901 117.481 204.834 122.737C233.258 129.99 252.754 112.225 263.529 124.419C276.253 138.819 225.87 167.515 234.079 192.427C242.39 217.865 263.323 247.297 243.827 255.286C223.612 263.59 204.013 214.922 174.153 237.206C131.158 269.056 128.387 267.899 128.797 228.166C129.208 188.959 75.336 187.277 77.9013 158.265C79.9536 134.299 128.284 153.325 143.779 127.993C150.244 117.271 142.856 73.0179 162.147 71.5463Z" stroke="#1E1E1E" stroke-width="0.1903" stroke-miterlimit="10"/>
<path d="M162.557 74.3843C176.41 73.2281 183.696 118.953 204.013 124.103C231.616 131.041 250.497 113.802 261.066 125.68C273.38 139.66 224.536 167.515 232.54 191.692C240.646 216.393 260.963 244.879 242.083 252.763C222.483 260.857 203.397 213.66 174.358 235.314C132.697 266.217 129.926 265.271 130.337 226.8C130.645 188.748 78.7223 187.067 80.9797 158.896C82.8268 135.666 129.516 154.061 144.703 129.359C151.065 118.848 143.779 75.8559 162.557 74.3843Z" stroke="#1E1E1E" stroke-width="0.1879" stroke-miterlimit="10"/>
<path d="M162.865 77.1174C176.307 75.9611 183.49 120.424 203.192 125.365C229.871 132.092 248.342 115.274 258.5 126.836C270.506 140.396 223.099 167.515 230.795 190.956C238.593 214.922 258.398 242.567 240.132 250.135C221.149 258.019 202.576 212.294 174.46 233.317C134.133 263.274 131.362 262.538 131.67 225.223C131.875 188.433 81.8002 186.541 83.8524 159.211C85.4942 136.612 130.541 154.376 145.42 130.515C151.782 120.424 144.702 78.6941 162.865 77.1174Z" stroke="#1E1E1E" stroke-width="0.1854" stroke-miterlimit="10"/>
<path d="M163.275 79.9554C176.307 78.7992 183.284 122.001 202.473 126.731C228.332 133.248 246.186 116.85 256.14 128.098C267.735 141.237 221.867 167.515 229.358 190.22C236.951 213.555 256.037 240.149 238.49 247.612C220.225 255.391 201.96 211.033 174.767 231.425C135.774 260.436 133.106 259.805 133.312 223.751C133.517 188.118 85.2887 186.226 87.1357 159.737C88.5723 137.873 132.08 154.902 146.549 131.777C152.603 122.001 145.625 81.5321 163.275 79.9554Z" stroke="#1E1E1E" stroke-width="0.183" stroke-miterlimit="10"/>
<path d="M163.687 82.7935C176.308 81.6373 183.08 123.473 201.653 128.098C226.588 134.299 243.93 118.532 253.576 129.359C264.761 142.078 220.432 167.515 227.615 189.589C235.003 212.189 253.473 237.942 236.542 245.195C218.892 252.763 201.14 209.876 174.769 229.533C137.11 257.598 134.442 257.178 134.647 222.28C134.75 187.908 88.471 185.805 90.0102 160.263C91.2416 139.03 133.108 155.427 147.166 133.143C153.323 123.578 146.55 84.2651 163.687 82.7935Z" stroke="#1E1E1E" stroke-width="0.1806" stroke-miterlimit="10"/>
<path d="M164.096 85.6317C176.41 84.4754 182.874 125.049 200.934 129.464C225.048 135.456 241.877 120.109 251.112 130.62C261.887 142.919 219.097 167.621 226.074 188.854C233.155 210.717 251.112 235.524 234.797 242.567C217.763 249.925 200.524 208.51 175.076 227.536C138.751 254.655 136.083 254.34 136.185 220.808C136.185 187.592 91.8563 185.385 93.0877 160.788C94.1138 140.186 134.338 156.058 148.088 134.51C154.143 125.155 147.473 87.1033 164.096 85.6317Z" stroke="#1E1E1E" stroke-width="0.1782" stroke-miterlimit="10"/>
<path d="M164.506 88.4696C176.409 87.3134 182.771 126.521 200.215 130.831C223.406 136.612 239.721 121.686 248.751 131.882C259.218 143.76 217.865 167.62 224.535 188.223C231.41 209.456 248.751 233.317 233.052 240.149C216.634 247.297 199.805 207.354 175.28 225.749C140.289 251.922 137.724 251.817 137.724 219.442C137.724 187.487 95.1394 185.175 96.2681 161.419C97.089 141.552 135.672 156.689 149.114 135.876C154.963 126.731 148.396 89.9412 164.506 88.4696Z" stroke="#1E1E1E" stroke-width="0.1758" stroke-miterlimit="10"/>
<path d="M164.816 91.3077C176.308 90.1515 182.465 128.098 199.294 132.302C221.561 137.768 237.466 123.368 246.085 133.248C256.141 144.706 216.327 167.726 222.792 187.592C229.462 208.089 246.188 231.004 231.104 237.732C215.301 244.669 198.986 206.197 175.385 223.962C141.728 249.189 139.162 249.189 139.06 218.075C138.957 187.277 98.3222 184.859 99.1431 161.944C99.7588 142.708 136.7 157.214 149.834 137.243C155.683 128.308 149.321 92.7793 164.816 91.3077Z" stroke="#1E1E1E" stroke-width="0.1733" stroke-miterlimit="10"/>
<path d="M165.224 94.0407C176.409 92.8844 182.258 129.569 198.574 133.564C220.02 138.819 235.309 124.839 243.724 134.404C253.369 145.441 215.094 167.726 221.251 186.856C227.613 206.618 243.826 228.692 229.358 235.209C214.171 241.936 198.369 204.936 175.588 222.07C143.265 246.351 140.7 246.561 140.597 216.604C140.392 187.067 101.707 184.544 102.22 162.47C102.63 143.97 138.032 157.845 150.756 138.504C156.502 129.885 150.243 95.5123 165.224 94.0407Z" stroke="#1E1E1E" stroke-width="0.1709" stroke-miterlimit="10"/>
<path d="M165.636 96.8788C176.411 95.8276 182.157 131.041 197.857 134.93C218.38 139.976 233.258 126.521 241.262 135.771C250.497 146.387 213.762 167.831 219.714 186.226C225.87 205.356 241.468 226.484 227.512 232.686C212.941 239.203 197.549 203.675 175.795 220.178C144.806 243.513 142.343 243.933 142.138 215.237C141.83 186.856 105.094 184.229 105.402 163.101C105.608 145.231 139.367 158.476 151.681 139.976C157.222 131.461 151.168 98.3504 165.636 96.8788Z" stroke="#1E1E1E" stroke-width="0.1685" stroke-miterlimit="10"/>
<path d="M166.047 99.7169C176.411 98.6658 181.952 132.618 197.036 136.297C216.738 141.027 231.001 128.098 238.8 137.032C247.727 147.228 212.325 167.831 218.072 185.595C224.023 203.99 239.005 224.172 225.665 230.268C211.812 236.575 196.831 202.518 175.898 218.285C146.243 240.675 143.78 241.2 143.472 213.766C143.164 186.646 108.173 183.913 108.276 163.626C108.276 146.493 140.394 159.001 152.399 141.342C158.043 133.038 152.091 101.188 166.047 99.7169Z" stroke="#1E1E1E" stroke-width="0.1661" stroke-miterlimit="10"/>
<path d="M166.456 102.555C176.512 101.504 181.745 134.194 196.316 137.663C215.095 142.183 228.947 129.674 236.336 138.294C244.852 148.069 210.99 167.936 216.531 184.859C222.175 202.518 236.643 221.859 223.919 227.746C210.682 233.842 196.111 201.257 176.102 216.393C147.78 237.837 145.318 238.572 145.01 212.294C144.599 186.331 111.558 183.493 111.353 164.047C111.147 147.544 141.624 159.527 153.321 142.498C158.76 134.615 153.014 104.027 166.456 102.555Z" stroke="#1E1E1E" stroke-width="0.1637" stroke-miterlimit="10"/>
<path d="M166.867 105.393C176.513 104.342 181.541 135.666 195.599 139.03C213.556 143.339 226.794 131.251 233.874 139.555C241.98 148.91 209.657 167.936 214.993 184.229C220.432 201.257 234.284 219.547 222.176 225.223C209.555 231.215 195.497 199.996 176.41 214.501C149.423 234.999 147.063 235.84 146.55 210.822C146.037 186.121 114.945 183.072 114.432 164.572C114.022 148.7 142.959 160.052 154.246 143.865C159.582 136.191 153.836 106.76 166.867 105.393Z" stroke="#1E1E1E" stroke-width="0.1613" stroke-miterlimit="10"/>
<path d="M167.175 108.126C176.41 107.075 181.336 137.138 194.778 140.291C211.812 144.285 224.536 132.723 231.411 140.711C239.107 149.646 208.323 167.831 213.351 183.388C218.584 199.68 231.821 217.129 220.329 222.595C208.323 228.376 194.778 198.629 176.513 212.504C150.86 232.055 148.499 233.107 147.986 209.351C147.473 185.805 118.126 182.757 117.51 165.098C116.895 149.961 144.19 160.578 155.169 145.126C160.3 137.768 154.759 109.598 167.175 108.126Z" stroke="#1E1E1E" stroke-width="0.1588" stroke-miterlimit="10"/>
<path d="M167.584 110.964C176.409 109.913 181.129 138.609 193.956 141.657C210.169 145.441 222.38 134.405 228.845 141.973C236.233 150.487 206.885 167.936 211.708 182.757C216.736 198.314 229.358 214.817 218.481 220.178C207.091 225.749 193.956 197.473 176.717 210.717C152.398 229.322 150.038 230.584 149.525 207.984C148.909 185.7 121.511 182.442 120.588 165.728C119.767 151.223 145.42 161.314 155.989 146.598C161.12 139.345 155.681 112.436 167.584 110.964Z" stroke="#1E1E1E" stroke-width="0.1564" stroke-miterlimit="10"/>
<path d="M167.996 113.802C176.513 112.751 180.926 140.186 193.239 143.024C208.529 146.598 220.227 135.981 226.486 143.234C233.464 151.433 205.656 167.936 210.171 182.021C214.891 196.947 226.999 212.504 216.738 217.655C205.963 223.016 193.342 196.212 176.924 208.825C153.938 226.484 151.681 227.851 150.963 206.513C150.244 185.385 124.796 182.021 123.565 166.254C122.539 152.379 146.653 161.839 156.812 147.859C161.942 140.922 156.606 115.274 167.996 113.802Z" stroke="#1E1E1E" stroke-width="0.154" stroke-miterlimit="10"/>
<path d="M168.406 116.64C176.512 115.589 180.719 141.762 192.52 144.39C206.988 147.649 218.173 137.558 224.022 144.495C230.589 152.274 204.32 167.936 208.63 181.39C213.145 195.581 224.638 210.297 214.992 215.132C204.936 220.283 192.623 194.95 177.231 206.828C155.579 223.541 153.322 225.118 152.603 204.936C151.782 185.069 128.181 181.601 126.847 166.569C125.616 153.43 148.088 162.26 157.939 149.015C162.659 142.498 157.529 118.007 168.406 116.64Z" stroke="#1E1E1E" stroke-width="0.1516" stroke-miterlimit="10"/>
<path d="M168.816 119.478C176.512 118.427 180.617 143.234 191.699 145.757C205.244 148.805 215.916 139.135 221.56 145.757C227.716 153.115 202.987 168.041 206.989 180.655C211.298 194.109 222.175 207.879 213.145 212.609C203.705 217.55 191.904 193.689 177.333 204.936C157.016 220.703 154.758 222.385 153.937 203.569C153.117 184.859 131.363 181.285 129.721 167.2C128.284 154.691 149.217 162.89 158.658 150.487C163.481 144.075 158.452 120.845 168.816 119.478Z" stroke="#1E1E1E" stroke-width="0.1492" stroke-miterlimit="10"/>
<path d="M169.227 122.316C176.616 121.265 180.412 144.811 190.981 147.123C203.705 149.961 213.864 140.711 219.097 147.018C224.946 153.956 201.653 168.041 205.45 180.024C209.452 192.743 219.713 205.672 211.401 210.192C202.577 214.922 191.289 192.427 177.539 203.149C158.556 217.97 156.401 219.862 155.477 202.203C154.554 184.754 134.647 180.97 132.8 167.831C131.158 155.953 150.449 163.521 159.582 151.853C164.199 145.652 159.377 123.683 169.227 122.316Z" stroke="#1E1E1E" stroke-width="0.1468" stroke-miterlimit="10"/>
<path d="M169.535 125.049C176.513 123.998 180.104 146.282 190.16 148.385C201.961 150.907 211.606 142.288 216.532 148.174C221.97 154.691 200.216 167.936 203.705 179.183C207.502 191.271 217.148 203.149 209.452 207.459C201.242 211.979 190.365 190.956 177.641 201.047C159.992 214.922 157.837 216.919 156.914 200.521C155.887 184.229 137.93 180.339 135.878 168.146C134.031 156.899 151.783 163.942 160.505 153.01C165.02 147.228 160.3 126.521 169.535 125.049Z" stroke="#1E1E1E" stroke-width="0.1443" stroke-miterlimit="10"/>
<path d="M169.945 127.887C176.512 126.836 180.001 147.754 189.338 149.751C200.215 152.064 209.451 143.865 214.068 149.436C219.096 155.532 198.779 168.041 202.165 178.552C205.757 189.905 214.787 200.942 207.706 205.041C200.113 209.456 189.749 189.8 177.846 199.26C161.53 212.189 159.478 214.396 158.349 199.155C157.323 184.018 141.11 180.129 138.853 168.672C136.8 158.16 152.911 164.467 161.222 154.271C165.84 148.805 161.222 129.254 169.945 127.887Z" stroke="#1E1E1E" stroke-width="0.1419" stroke-miterlimit="10"/>
<path d="M170.356 130.725C176.616 129.674 179.797 149.331 188.622 151.118C198.678 153.22 207.297 145.441 211.607 150.697C216.225 156.373 197.446 168.041 200.525 177.817C203.911 188.433 212.325 198.524 205.758 202.518C198.78 206.723 188.827 188.538 177.95 197.368C162.968 209.351 160.916 211.768 159.787 197.788C158.659 183.913 144.293 179.814 141.83 169.302C139.47 159.422 154.144 165.203 162.045 155.743C166.56 150.382 162.147 132.092 170.356 130.725Z" stroke="#1E1E1E" stroke-width="0.1395" stroke-miterlimit="10"/>
<path d="M170.767 133.563C176.616 132.512 179.592 150.802 187.903 152.484C197.036 154.376 205.245 147.018 209.247 151.958C213.557 157.214 196.215 168.041 199.088 177.186C202.166 187.172 210.068 196.317 204.116 200.101C197.754 204.095 188.314 187.382 178.258 195.581C164.61 206.618 162.558 209.141 161.326 196.422C160.095 183.703 147.679 179.498 145.011 169.933C142.446 160.683 155.477 165.834 163.071 157.109C167.381 151.958 163.071 134.93 170.767 133.563Z" stroke="#1E1E1E" stroke-width="0.1371" stroke-miterlimit="10"/>
<path d="M171.176 136.402C176.615 135.351 179.385 152.379 187.081 153.851C195.393 155.427 202.986 148.595 206.68 153.22C210.58 158.055 194.777 168.146 197.343 176.45C200.216 185.7 207.501 194.004 202.165 197.473C196.522 201.257 187.492 186.016 178.359 193.479C166.046 203.57 164.096 206.303 162.762 194.74C161.531 183.283 150.859 178.868 147.986 170.248C145.112 161.629 156.708 166.254 163.891 158.265C168.2 153.535 163.993 137.768 171.176 136.402Z" stroke="#1E1E1E" stroke-width="0.1347" stroke-miterlimit="10"/>
<path d="M171.484 139.135C176.512 138.083 179.18 153.851 186.261 155.112C193.649 156.478 200.729 150.066 204.115 154.376C207.604 158.791 193.341 168.041 195.701 175.714C198.369 184.229 205.039 191.587 200.319 194.95C195.291 198.524 186.671 184.754 178.462 191.587C167.482 200.731 165.533 203.57 164.199 193.268C162.865 182.967 154.04 178.447 150.962 170.774C147.883 162.785 157.939 166.78 164.712 159.632C169.022 155.217 164.917 140.501 171.484 139.135Z" stroke="#1E1E1E" stroke-width="0.1322" stroke-miterlimit="10"/>
<path d="M171.895 141.973C176.615 140.922 178.975 155.322 185.543 156.584C192.11 157.74 198.677 151.854 201.756 155.743C204.834 159.737 192.11 168.146 194.265 175.084C196.625 182.967 202.782 189.379 198.677 192.533C194.265 195.896 186.158 183.598 178.873 189.8C169.227 197.999 167.278 201.047 165.841 192.007C164.404 182.967 157.324 178.342 154.246 171.405C150.859 164.047 159.376 167.515 165.738 160.998C169.74 156.794 165.841 143.339 171.895 141.973Z" stroke="#1E1E1E" stroke-width="0.1298" stroke-miterlimit="10"/>
<path d="M172.305 144.811C176.615 143.76 178.77 156.899 184.721 157.95C190.365 158.896 196.419 153.43 199.19 157.004C201.96 160.578 190.673 168.251 192.52 174.453C194.675 181.601 200.216 187.067 196.727 190.115C192.93 193.373 185.234 182.442 178.872 188.013C170.458 195.266 168.713 198.419 167.174 190.641C165.635 182.757 160.402 178.027 157.118 172.035C153.424 165.413 160.504 168.251 166.456 162.47C170.56 158.37 166.661 146.177 172.305 144.811Z" stroke="#1E1E1E" stroke-width="0.1274" stroke-miterlimit="10"/>
<path d="M172.715 147.649C176.615 146.598 178.564 158.476 184.003 159.316C188.723 160.052 194.367 155.007 196.829 158.265C199.189 161.419 189.441 168.251 191.083 173.717C193.033 180.129 197.958 184.754 195.085 187.487C191.904 190.535 184.721 181.075 179.18 186.015C172.1 192.322 170.355 195.686 168.816 189.064C167.277 182.442 163.685 177.501 160.299 172.456C156.297 166.464 161.941 168.777 167.482 163.626C171.381 159.947 167.585 148.91 172.715 147.649Z" stroke="#1E1E1E" stroke-width="0.125" stroke-miterlimit="10"/>
<path d="M173.126 150.487C176.717 149.436 178.359 160.052 183.285 160.683C187.184 161.209 192.212 156.584 194.367 159.527C196.317 162.26 188.107 168.356 189.441 172.981C191.083 178.763 195.496 182.442 193.238 184.964C190.673 187.802 184.003 179.814 179.385 184.123C173.639 189.484 171.895 193.058 170.253 187.592C168.611 182.126 166.867 177.186 163.378 172.981C159.068 167.726 163.275 169.407 168.406 164.993C172.202 161.524 168.508 151.748 173.126 150.487Z" stroke="#1E1E1E" stroke-width="0.1226" stroke-miterlimit="10"/>
<path d="M173.537 153.325C176.718 152.274 178.257 161.629 182.464 162.049C185.44 162.365 190.058 158.16 191.905 160.788C193.546 163.101 186.774 168.356 187.903 172.351C189.339 177.396 193.136 180.129 191.494 182.547C189.647 185.175 183.285 178.657 179.591 182.231C175.179 186.646 173.434 190.325 171.792 186.226C170.048 182.021 170.048 176.976 166.457 173.507C161.736 168.987 164.61 170.038 169.33 166.254C173.024 163.206 169.432 154.586 173.537 153.325Z" stroke="#1E1E1E" stroke-width="0.1202" stroke-miterlimit="10"/>
<path d="M173.845 156.058C176.615 155.007 177.949 163.101 181.643 163.311C183.695 163.416 187.8 159.632 189.339 161.944C190.571 163.836 185.235 168.251 186.158 171.51C187.39 175.819 190.571 177.711 189.544 179.814C188.313 182.336 182.361 177.081 179.694 180.129C176.615 183.598 174.973 187.487 173.126 184.544C171.279 181.496 173.024 176.45 169.33 173.822C164.199 170.143 165.738 170.459 169.945 167.41C173.845 164.888 170.356 157.424 173.845 156.058Z" stroke="#1E1E1E" stroke-width="0.1177" stroke-miterlimit="10"/>
<path d="M180.924 164.677C182.155 164.677 185.747 161.209 186.876 163.206C187.696 164.677 183.9 168.356 184.618 170.879C185.542 174.558 188.21 175.504 187.799 177.396C187.183 179.709 181.745 175.925 179.898 178.342C178.051 180.76 176.512 184.859 174.665 183.177C172.715 181.39 176.204 176.345 172.51 174.453C167.071 171.615 167.174 171.194 170.971 168.882C174.767 166.569 171.278 160.157 174.254 158.896C176.717 157.845 177.743 164.782 180.924 164.677Z" stroke="#1E1E1E" stroke-width="0.1153" stroke-miterlimit="10"/>
</svg>
