<svg width="34" height="33" viewBox="0 0 34 33" fill="none" xmlns="http://www.w3.org/2000/svg">
<path d="M30.8771 3.30462C29.0732 1.40665 26.6814 0.252703 24.137 0.0526373C21.5925 -0.147428 19.0642 0.619674 17.012 2.21444C14.8501 0.523123 12.1592 -0.243802 9.48117 0.0681076C6.80317 0.380017 4.337 1.74759 2.57927 3.89543C0.821546 6.04328 -0.0971638 8.81184 0.00814817 11.6436C0.11346 14.4754 1.23497 17.16 3.14684 19.1569L15.8056 32.4714C15.9635 32.6389 16.1515 32.7718 16.3585 32.8626C16.5656 32.9533 16.7877 33 17.012 33C17.2363 33 17.4584 32.9533 17.6654 32.8626C17.8725 32.7718 18.0604 32.6389 18.2184 32.4714L30.8771 19.1569C31.8672 18.1163 32.6525 16.8806 33.1884 15.5206C33.7242 14.1606 34 12.7029 34 11.2308C34 9.7586 33.7242 8.30087 33.1884 6.94087C32.6525 5.58087 31.8672 4.34525 30.8771 3.30462ZM28.4813 16.637L17.012 28.6825L5.54265 16.637C4.53195 15.5695 3.84345 14.2118 3.56352 12.7344C3.28359 11.2569 3.4247 9.72538 3.96915 8.33194C4.51359 6.93849 5.43713 5.74518 6.62391 4.90168C7.81068 4.05819 9.20785 3.60208 10.6401 3.59057C12.5536 3.5955 14.387 4.39897 15.7376 5.82454C15.8956 5.99205 16.0835 6.12501 16.2906 6.21574C16.4976 6.30647 16.7197 6.35318 16.944 6.35318C17.1683 6.35318 17.3904 6.30647 17.5975 6.21574C17.8045 6.12501 17.9925 5.99205 18.1504 5.82454C19.5409 4.55722 21.3372 3.89286 23.1758 3.96592C25.0143 4.03898 26.7579 4.844 28.0535 6.21806C29.349 7.59211 30.0999 9.43256 30.1541 11.3669C30.2083 13.3013 29.5618 15.185 28.3454 16.637H28.4813Z" fill="#212121"/>
</svg>
