<svg width="208" height="25" viewBox="0 0 208 25" fill="none" xmlns="http://www.w3.org/2000/svg">
<path d="M21.8523 0H26.7685V24.9938H21.4718V9.60697L14.9281 19.6451H11.8497L5.30606 9.57261V25H0V0.00624858H4.91623L13.4059 13.0061L21.8523 0Z" fill="white"/>
<path d="M35.0176 24.9996H29.5352L39.6522 0.00585938H45.3822L55.4621 24.9996H49.9797L48.176 20.3133H36.8584L35.0176 24.9996ZM41.9634 6.92912L38.5322 15.8925H46.5269L43.0463 6.92912C42.8185 6.2893 42.6416 5.63218 42.5172 4.96399C42.3979 5.63603 42.2124 6.29435 41.9634 6.92912Z" fill="white"/>
<path d="M67.4539 25H62.1942V16.1428L52.4824 0H58.4599L64.79 11.2159L71.1202 0H77.11L67.4539 16.1428V25Z" fill="white"/>
<path d="M85.1732 25H79.8672V0.00624858H85.1732V9.92877H89.1706L95.4296 0H101.339L93.2948 12.1845L101.784 24.9938H95.906L89.1706 14.7869H85.1732V25Z" fill="white"/>
<path d="M104.309 0H109.615V24.9938H104.309V0Z" fill="white"/>
<path d="M144.628 0H149.544V24.9938H144.241V9.60697L137.698 19.6451H134.619L128.076 9.57261V25H122.77V0.00624858H127.686L136.175 13.0061L144.628 0Z" fill="white"/>
<path d="M154.85 0H160.149V24.9938H154.85V0Z" fill="white"/>
<path d="M170.769 25H165.463V0.00624858H170.769V9.92877H174.763L181.025 0H186.932L178.903 12.1845L187.393 24.9938H181.514L174.763 14.7869H170.769V25Z" fill="white"/>
<path d="M189.9 0H207.341V4.71445H195.207V10.0256H206.28V14.7119H195.207V20.2856H207.551V25H189.9V0Z" fill="white"/>
</svg>
