<svg width="30" height="30" viewBox="0 0 30 30" fill="none" xmlns="http://www.w3.org/2000/svg">
<g clip-path="url(#clip0)">
<path d="M0.365299 27.8662L7.82655 20.405C5.79327 17.9182 4.79358 14.7451 5.03425 11.5419C5.27492 8.33876 6.73754 5.35064 9.11957 3.19562C11.5016 1.04061 14.6208 -0.116413 17.832 -0.0361233C21.0432 0.0441664 24.1007 1.35563 26.372 3.62699C28.6434 5.89835 29.9549 8.95584 30.0351 12.167C30.1154 15.3782 28.9584 18.4974 26.8034 20.8795C24.6484 23.2615 21.6603 24.7241 18.4571 24.9648C15.2539 25.2054 12.0808 24.2058 9.59405 22.1725L2.1328 29.6337C1.89705 29.8614 1.5813 29.9874 1.25355 29.9846C0.925804 29.9817 0.612288 29.8503 0.380527 29.6185C0.148767 29.3867 0.0173054 29.0732 0.0144577 28.7455C0.01161 28.4177 0.137602 28.102 0.365299 27.8662ZM17.4991 22.5C19.4769 22.5 21.4103 21.9135 23.0548 20.8147C24.6992 19.7159 25.981 18.1541 26.7378 16.3268C27.4947 14.4995 27.6928 12.4889 27.3069 10.5491C26.9211 8.60926 25.9686 6.82743 24.5701 5.4289C23.1716 4.03038 21.3898 3.07797 19.45 2.69212C17.5101 2.30627 15.4995 2.5043 13.6722 3.26118C11.845 4.01805 10.2832 5.29978 9.18436 6.94427C8.08554 8.58876 7.49905 10.5222 7.49905 12.5C7.50203 15.1512 8.55655 17.693 10.4313 19.5678C12.306 21.4425 14.8478 22.497 17.4991 22.5Z" fill="#212121"/>
</g>
<defs>
<clipPath id="clip0">
<rect width="30" height="30" fill="white" transform="matrix(-1 0 0 1 30 0)"/>
</clipPath>
</defs>
</svg>
