<svg width="12" height="24" viewBox="0 0 12 24" fill="none" xmlns="http://www.w3.org/2000/svg">
<path d="M0.999787 23.9999C0.802037 23.9999 0.608738 23.9412 0.444329 23.8313C0.279919 23.7214 0.151779 23.5653 0.0761092 23.3826C0.000439122 23.1999 -0.0193641 22.9988 0.0192034 22.8049C0.057771 22.6109 0.152978 22.4328 0.292787 22.2929L8.46479 14.1209C9.0272 13.5583 9.34315 12.7954 9.34315 11.9999C9.34315 11.2044 9.0272 10.4415 8.46479 9.87892L0.292787 1.70692C0.110629 1.51832 0.00983443 1.26571 0.0121129 1.00352C0.0143913 0.741321 0.11956 0.490508 0.304969 0.3051C0.490377 0.119692 0.741189 0.0145233 1.00339 0.0122448C1.26558 0.00996641 1.51818 0.110761 1.70679 0.292919L9.87879 8.46492C10.8149 9.40321 11.3407 10.6745 11.3407 11.9999C11.3407 13.3253 10.8149 14.5966 9.87879 15.5349L1.70679 23.7069C1.51929 23.8945 1.26498 23.9999 0.999787 23.9999Z" fill="#374957"/>
</svg>
