<svg width="20" height="20" viewBox="0 0 20 20" fill="none" xmlns="http://www.w3.org/2000/svg">
<g clip-path="url(#clip0)">
<path d="M3.75 14.5835H1.66667C1.22464 14.5835 0.800716 14.7591 0.488155 15.0717C0.175595 15.3842 0 15.8081 0 16.2502L0 18.3335C0 18.7755 0.175595 19.1994 0.488155 19.512C0.800716 19.8246 1.22464 20.0002 1.66667 20.0002H3.75C4.19203 20.0002 4.61595 19.8246 4.92851 19.512C5.24107 19.1994 5.41667 18.7755 5.41667 18.3335V16.2502C5.41667 15.8081 5.24107 15.3842 4.92851 15.0717C4.61595 14.7591 4.19203 14.5835 3.75 14.5835ZM3.75 18.3335H1.66667V16.2502H3.75V18.3335Z" fill="#FFEF5C"/>
<path d="M18.334 14.5835H16.2507C15.8086 14.5835 15.3847 14.7591 15.0721 15.0717C14.7596 15.3842 14.584 15.8081 14.584 16.2502V18.3335C14.584 18.7755 14.7596 19.1994 15.0721 19.512C15.3847 19.8246 15.8086 20.0002 16.2507 20.0002H18.334C18.776 20.0002 19.1999 19.8246 19.5125 19.512C19.8251 19.1994 20.0007 18.7755 20.0007 18.3335V16.2502C20.0007 15.8081 19.8251 15.3842 19.5125 15.0717C19.1999 14.7591 18.776 14.5835 18.334 14.5835ZM18.334 18.3335H16.2507V16.2502H18.334V18.3335Z" fill="#FFEF5C"/>
<path d="M3.75 7.2915H1.66667C1.22464 7.2915 0.800716 7.4671 0.488155 7.77966C0.175595 8.09222 0 8.51614 0 8.95817L0 11.0415C0 11.4835 0.175595 11.9075 0.488155 12.22C0.800716 12.5326 1.22464 12.7082 1.66667 12.7082H3.75C4.19203 12.7082 4.61595 12.5326 4.92851 12.22C5.24107 11.9075 5.41667 11.4835 5.41667 11.0415V8.95817C5.41667 8.51614 5.24107 8.09222 4.92851 7.77966C4.61595 7.4671 4.19203 7.2915 3.75 7.2915ZM3.75 11.0415H1.66667V8.95817H3.75V11.0415Z" fill="#FFEF5C"/>
<path d="M18.334 7.2915H16.2507C15.8086 7.2915 15.3847 7.4671 15.0721 7.77966C14.7596 8.09222 14.584 8.51614 14.584 8.95817V11.0415C14.584 11.4835 14.7596 11.9075 15.0721 12.22C15.3847 12.5326 15.8086 12.7082 16.2507 12.7082H18.334C18.776 12.7082 19.1999 12.5326 19.5125 12.22C19.8251 11.9075 20.0007 11.4835 20.0007 11.0415V8.95817C20.0007 8.51614 19.8251 8.09222 19.5125 7.77966C19.1999 7.4671 18.776 7.2915 18.334 7.2915ZM18.334 11.0415H16.2507V8.95817H18.334V11.0415Z" fill="#FFEF5C"/>
<path d="M3.75 0H1.66667C1.22464 0 0.800716 0.175595 0.488155 0.488155C0.175595 0.800716 0 1.22464 0 1.66667L0 3.75C0 4.19203 0.175595 4.61595 0.488155 4.92851C0.800716 5.24107 1.22464 5.41667 1.66667 5.41667H3.75C4.19203 5.41667 4.61595 5.24107 4.92851 4.92851C5.24107 4.61595 5.41667 4.19203 5.41667 3.75V1.66667C5.41667 1.22464 5.24107 0.800716 4.92851 0.488155C4.61595 0.175595 4.19203 0 3.75 0V0ZM3.75 3.75H1.66667V1.66667H3.75V3.75Z" fill="#FFEF5C"/>
<path d="M11.041 14.5835H8.95768C8.51565 14.5835 8.09173 14.7591 7.77917 15.0717C7.46661 15.3842 7.29102 15.8081 7.29102 16.2502V18.3335C7.29102 18.7755 7.46661 19.1994 7.77917 19.512C8.09173 19.8246 8.51565 20.0002 8.95768 20.0002H11.041C11.483 20.0002 11.907 19.8246 12.2195 19.512C12.5321 19.1994 12.7077 18.7755 12.7077 18.3335V16.2502C12.7077 15.8081 12.5321 15.3842 12.2195 15.0717C11.907 14.7591 11.483 14.5835 11.041 14.5835ZM11.041 18.3335H8.95768V16.2502H11.041V18.3335Z" fill="#FFEF5C"/>
<path d="M11.041 7.2915H8.95768C8.51565 7.2915 8.09173 7.4671 7.77917 7.77966C7.46661 8.09222 7.29102 8.51614 7.29102 8.95817V11.0415C7.29102 11.4835 7.46661 11.9075 7.77917 12.22C8.09173 12.5326 8.51565 12.7082 8.95768 12.7082H11.041C11.483 12.7082 11.907 12.5326 12.2195 12.22C12.5321 11.9075 12.7077 11.4835 12.7077 11.0415V8.95817C12.7077 8.51614 12.5321 8.09222 12.2195 7.77966C11.907 7.4671 11.483 7.2915 11.041 7.2915ZM11.041 11.0415H8.95768V8.95817H11.041V11.0415Z" fill="#FFEF5C"/>
<path d="M11.041 0H8.95768C8.51565 0 8.09173 0.175595 7.77917 0.488155C7.46661 0.800716 7.29102 1.22464 7.29102 1.66667V3.75C7.29102 4.19203 7.46661 4.61595 7.77917 4.92851C8.09173 5.24107 8.51565 5.41667 8.95768 5.41667H11.041C11.483 5.41667 11.907 5.24107 12.2195 4.92851C12.5321 4.61595 12.7077 4.19203 12.7077 3.75V1.66667C12.7077 1.22464 12.5321 0.800716 12.2195 0.488155C11.907 0.175595 11.483 0 11.041 0V0ZM11.041 3.75H8.95768V1.66667H11.041V3.75Z" fill="#FFEF5C"/>
<path d="M18.334 0H16.2507C15.8086 0 15.3847 0.175595 15.0721 0.488155C14.7596 0.800716 14.584 1.22464 14.584 1.66667V3.75C14.584 4.19203 14.7596 4.61595 15.0721 4.92851C15.3847 5.24107 15.8086 5.41667 16.2507 5.41667H18.334C18.776 5.41667 19.1999 5.24107 19.5125 4.92851C19.8251 4.61595 20.0007 4.19203 20.0007 3.75V1.66667C20.0007 1.22464 19.8251 0.800716 19.5125 0.488155C19.1999 0.175595 18.776 0 18.334 0V0ZM18.334 3.75H16.2507V1.66667H18.334V3.75Z" fill="#FFEF5C"/>
</g>
<defs>
<clipPath id="clip0">
<rect width="20" height="20" fill="white"/>
</clipPath>
</defs>
</svg>
