<svg width="23" height="22" viewBox="0 0 23 22" fill="none" xmlns="http://www.w3.org/2000/svg">
<path fill-rule="evenodd" clip-rule="evenodd" d="M11.4672 0.00261955C11.2678 0.00261955 11.0933 0.147267 11.0185 0.340143L8.52564 7.59709H0.498575C0.224359 7.59709 0 7.81407 0 8.07928C0 8.22393 0.0747863 8.36858 0.19943 8.46502L6.70584 13.0699L4.21296 20.5921C4.13818 20.8573 4.26282 21.1225 4.53704 21.1948C4.68661 21.243 4.86111 21.2189 4.98575 21.1225L11.4922 16.5176L17.9986 21.1225C18.2229 21.2912 18.5221 21.243 18.6966 21.026C18.7963 20.9055 18.8212 20.7367 18.7714 20.5921L16.2785 13.0699L22.7849 8.46502C23.0093 8.29626 23.0591 8.00694 22.8846 7.78996C22.7849 7.66941 22.6353 7.59709 22.4857 7.59709H14.4587L11.9658 0.340143C11.891 0.123158 11.6916 -0.0214899 11.4672 0.00261955Z" fill="#FFDC5D"/>
</svg>
