<svg width="22" height="22" viewBox="0 0 22 22" fill="none" xmlns="http://www.w3.org/2000/svg">
<g clip-path="url(#clip0)">
<path d="M12.7254 20.7634L12.7179 20.7977L12.7179 6.0763L17.356 10.7042C17.5824 10.9308 17.8891 11.0551 18.2111 11.0551C18.533 11.0551 18.8376 10.9308 19.0646 10.7042L19.7851 9.98407C20.0115 9.75763 20.1367 9.45589 20.1367 9.13412C20.1367 8.81217 20.0124 8.51025 19.786 8.28381L11.8536 0.350752C11.6263 0.123419 11.3235 -0.000889902 11.0014 4.39263e-06C10.6774 -0.000889931 10.3744 0.123419 10.1475 0.350752L2.21441 8.28381C1.98815 8.51025 1.86366 8.81199 1.86366 9.13412C1.86366 9.45589 1.98833 9.75763 2.21441 9.98407L2.93487 10.7042C3.16095 10.9308 3.46287 11.0551 3.78482 11.0551C4.10659 11.0551 4.39259 10.9308 4.61885 10.7042L9.28285 6.02407L9.28285 20.7798C9.28285 21.4429 9.85431 22 10.517 22L11.536 22C12.1987 22 12.7254 21.4264 12.7254 20.7634Z" fill="white"/>
</g>
<defs>
<clipPath id="clip0">
<rect width="22" height="22" fill="white" transform="translate(22) rotate(90)"/>
</clipPath>
</defs>
</svg>
